<?xml version="1.0" encoding="utf-8"?>
<!-- Generator: Adobe Illustrator 18.1.1, SVG Export Plug-In . SVG Version: 6.00 Build 0)  -->
<!DOCTYPE svg PUBLIC "-//W3C//DTD SVG 1.1//EN" "http://www.w3.org/Graphics/SVG/1.1/DTD/svg11.dtd">
<svg version="1.1" xmlns="http://www.w3.org/2000/svg" xmlns:xlink="http://www.w3.org/1999/xlink" x="0px" y="0px"
	 viewBox="0 0 243.4 179" enable-background="new 0 0 243.4 179" xml:space="preserve">
<g id="Layer_3">
	<g>
		<rect x="0.5" y="0.5" fill="#FFFFFF" width="242.4" height="178"/>
	</g>
</g>
<g id="Layer_4">
	<g>
		<g>
			<g>
				<g>
					<path fill="none" d="M98.2,54.8c-1.1,0.4,0.2,3.3,0.2,3.3s0.1,0.2,0.2,0.4c0.1,0.1,3.1-0.4,4-0.3c0.8,0.1,1.6-0.8,1.6-0.8
						C103.6,56.6,98.2,54.8,98.2,54.8z"/>
					<path fill="none" d="M118.1,34.3L118.1,34.3C118.1,34.3,118.1,34.3,118.1,34.3L118.1,34.3z"/>
					<path fill="#CD7B33" d="M171,84c-0.7-1-5.3-2-7.1-3.2c0.4-0.1,0.8-0.2,1.2-0.3c0.3-0.1,0.4-0.2,0.1-0.3c-1.2-0.5-1.8-0.9-3-2.2
						c-0.8-0.9-0.3-1.2-1.7-2.8c-0.7-0.9-1-1.2-1.2-1.4c1.2,0.3,1.6,0.5,2,0.7c0.1,0.1,0.5,0.4,0.5,0.6c0,0.1,0.6,0.1,0.4-0.2
						c-0.6-1.6-4.8-3.3-6.5-3.5c0.3-0.3,1.2-0.4,1.5-0.4c0.4,0.1,1.2,0.1,0.3-0.4c-0.7-0.4-2.2-0.4-3-0.4c-2.7-1.1-4.4-0.5-5.6,0.8
						l-1.5,0.3c-0.3-1.1-0.6-1.9-0.6-1.9c-1.6-3.3-5.2-5.3-5.2-5.3c0,0,0,0-0.1,0c-0.7-0.6-1.5-1.2-2.3-1.7
						c-0.7-0.7-1.7-1.5-1.7-1.5c-1.4-0.9-3.7-2.7-4.9-3.7c-6-5-7.3-7.3-7.5-8.2c-0.2-1.4-1-2.9-1.2-3.3c-0.1-0.1-0.2-0.2-0.4-0.3
						c0,0,0,0,0,0s-0.1-0.2-0.3-0.6c-0.8-1.6-3-7.7-4.8-9c0-0.1,0-0.2,0-0.2c1.4,0.3,0.9-0.1,0.9-0.1c-0.8-0.3-1.2-0.7-1.3-0.9
						l-0.2-0.3c0,0,0,0,0,0c0.9,0.7,0.9,0.4,0.9,0.4c-0.7-0.9-1.3-1.4-1.6-1.7l-0.2-0.4c0.2-0.2,0.5-0.4,0.3-0.5
						c0-0.1-0.4-0.3-0.4-0.2c-0.3,0.1-1.3-0.3-1.4-0.3c-0.2,0-0.3-0.1-0.5-0.2c-0.1-0.1,0.1-0.2,0.2-0.3c0.1-0.1-0.1-0.1-0.1-0.1
						c-0.3,0.2-1.1-0.1-1.1-0.1s0,0,0,0c0,0-0.1,0-0.1,0c0,0-0.1,0-0.1,0c-0.2,0-0.3,0-0.6,0c-0.1,0-0.3,0-0.2,0
						c0.3-0.1,0.8-0.5,1.1-0.5c0.1,0,0.1-0.3-0.1-0.3c-0.4-0.1-1-0.2-1.5-0.6c-0.6-0.3-0.9-0.9-1.3-1.3c0.1,0,0.1,0,0.2,0
						c0.4,0,0.9-0.3,0.9-0.3c-0.3-0.3-2.6-1.2-2.6-1.2c-0.5-0.1-1.1-0.2-1.7-0.3c0.2-0.2,0.3-0.5,0.5-0.7c0.1-0.1,0.1-0.5-0.4-0.3
						c-0.3,0.1-1.9,0.1-2.1,0.1l0.3-0.7c0.1-0.5,0.3-1.3,0.5-1.5c0.3-0.3,0.1-0.4-0.1-0.5c-0.3-0.1-1.1-0.2-1.7,0.2l0.2-0.6
						c0,0,0.3-0.6-0.5-0.3c-0.9,0.4-1-0.6-3.5,1.7c-1.6,1.4-0.5,1-3.3,2.3c-2.7,1.3-2.1,1.4-2.6,1.9c-0.5,0.4-3.3,2.8-3.6,2.9
						c-0.5,0.3-1,0.5-1.3,0.8c-0.8,0.9-1.4,1.7-2.2,2.7c-0.7,0.9-0.5,0.9-0.2,1.7c0.2,0.5,0.2,0.5,0.7,1.6c0.3,0.5,0.4,0.1,0.6,0
						c0.7-0.3,0.4,0.2,0.6,0.5c0.1,0.2-0.1,1.1,1,1.4c1.1,0.2,2,0.5,2.2,0.3c0.2-0.2,0.4-0.6,0.4-1c0.1-0.5,0.1-0.3,0.6-0.4
						c0.5-0.1,3.6-0.3,5.6-0.4c2.4-0.1,2.7-0.1,3.2-0.2c0.4-0.2,0.4,0.2,0.6,0.5c0,0.1,0.1,0.2,0.1,0.3c0.3,0.7,0.6,1.9,0.9,2.6
						c0.1,1.1,0.2,3.1,0.2,3.1c-3.1,5.5-2.8,8.1-2.8,8.1s-4.5-0.2-5.8,0c-1.4,0.2-1.7,2.7-1.8,2.9c0,0.3,1.6,3.4,1.6,3.4
						c-1.4-0.2-3.1,0.7-3.4,1.8c-0.3,1,0.2,2.2,0.2,2.2s0,0-0.1,0.7c-0.1,0.7-0.2,5.1,0.1,6.7c0.3,1.6,1.6,3,1.6,3
						c-0.1,0.9,0.1,3.1,1.5,4.5c0.1,0,0.1,0,0.2,0c3.9-1.1,2.4-3.4,2.2-4.4c-0.3-1-2.3-1.6-2.3-1.6s0.7-1.4,0.2-1.8
						c-1.9-2.7-1-5-0.9-6.9c0.1-1.9,2-0.7,2-0.7c-0.2,0.8,0.3,2,0.6,2.4c0.4,0.5,2.8,0.9,3.8,1.7c1,0.7,1.6,0.5,1.9,0.7
						c0.3,0.2,2.6,1,3.1,0.7c0.4-0.2-0.5-1.9-0.9-2.9h0c-1.5-1.9-2.6-1.3-2.9-1.1c0,0,0,0,0,0c0,0,0,0,0,0l0,0
						c-0.2,0.1-0.8,0.3-0.8,0.3s-0.4,0-0.5-0.1c-0.1-0.1-0.3-0.2-0.3-0.2s-0.2-0.4-0.2-0.5c0-0.1,0.6-0.3,0.6-0.3l0.1-0.1
						c0,0,0.4,0,0.7,0.1c1.6-0.1,3.1,0.5,3.6,0.8c0,0,0,0,0,0c0.1,0.1,0.2,0.1,0.2,0.1c2.2,1.1,3.4,0.5,3.7,0.2
						c1.5,1.8,8.5,9.7,16,12.6c0,0.7-0.1,1.5-0.4,2.3c-0.1,0.2-1.3,1.2-1.4,2.8c0,0-1.5,6.9,7.2,12.5c0.4,0.4,0.7,0.8,1.1,1.3
						c1.6,2.1,0.7,3,0.7,3c-7.8,7.5-7.2,8.3-7.2,8.3s-0.9,1.3-1.8,2.4c-0.7,0.3-2.1,1.3-2.3,2.7v0.8c0,0,0.4,0.1,1.1,0.2
						c0.6,0.1,1.2,0.1,1.7,0.1c1-0.1,2-0.3,3.1-0.9c0.2,0,0-2.6,0-3.2c0-0.6,0.8-0.8,0.8-0.8c1.5-2.8,8.6-9.5,9.9-10.4
						c1.3-0.9,0.8-2.1,0.4-2.4c-0.4-0.3-3.2-3.6-3.6-6.1c-0.3-2.2,1.1-3.4,1.3-3.6c0.3,2,1.6,5.2,6.1,9.7c0.3,0.5,0.6,0.9,0.7,1.2
						c0.7,1.3,1.1,5.2,1.1,5.2s-0.9,4.8-1,5.4c-0.1,0.6,0,2.5-2.2,4.4c-2.2,1.9-1.7,3.5-1.7,3.5c3.2,1.2,6.3-0.7,6.3-0.7
						c-1.1-5.3,2.3-14.6,2.4-16.3c0.1-1.7-0.2-2.2-1.5-4.3c-1-1.5-2-3.2-2.3-4.8c0.9-1.4,1.4-2.8,1.7-4.1c0.8-1.3,1.2-2.5,1.5-3.5
						c0-0.3,0.1-0.6,0.2-0.9v0c0.1-0.7,0.1-1.3,0.1-1.8c0.3-0.1,0.5-0.1,0.6-0.2c0.6-0.2,1.9-0.4,1.9-1.8c0.3,0.2,0.7,0.3,1,0.6
						c0.6,0.7,1,1,1.1,1.8c0,0,1,0.8,1,0.5c-0.9-1.2-0.7-1.3-0.3-1.4c0.4-0.1,0.5,0.2,0.5,0.2c1,1,1.5,2.2,2,3.5
						c0.3,1,1,1.7,2.4,2.2c2.6,0.8,3.1,0.9,3.5,1.1c0.2,0.1,0.5,0,0.2-0.2c-1.2-0.8-1.6-1.6-1.9-1.9c3,1.2,7.6-0.5,10.3,1.2
						C170.9,84.3,171.2,84.2,171,84z M102.5,58.2c-0.8-0.1-3.8,0.4-4,0.3c-0.1-0.1-0.2-0.4-0.2-0.4s-1.3-2.8-0.2-3.3
						c0,0,5.4,1.8,5.9,2.5C104.1,57.3,103.3,58.2,102.5,58.2z M118.1,34.3L118.1,34.3C118.1,34.3,118.1,34.3,118.1,34.3L118.1,34.3z
						"/>
				</g>
			</g>
		</g>
		<g>
			<path fill="#375C78" d="M54.4,142.2c-8.9,0-13.4-3.7-13.4-11c0-0.6,0-1.3,0.1-1.9l0.3,0c0,4,1.3,7.1,4,9.1v-17.1
				c0-0.6-0.2-1.1-0.7-1.5c-0.4-0.4-0.9-0.6-1.4-0.6h-0.4v-0.3H53c3.7,0,6.4,0.8,8.2,2.5c0.9,0.9,1.4,2,1.4,3.3
				c0,1.4-0.5,2.6-1.4,3.6c-0.4,0.5-0.9,0.8-1.4,1c0.1,0,0.2,0,0.3,0c1.5,0,2.8,0.5,4.1,1.5c1.2,1,1.9,2.4,1.9,4.1
				c0,1.7-0.6,3.2-1.9,4.3C62,141.2,58.8,142.2,54.4,142.2z M55.5,125.8v-1c-0.1-1.4-0.3-2.5-0.8-3.2c-0.5-0.7-1.3-1.1-2.5-1.2v19.9
				c2,0,3.5-0.5,4.6-1.6c1.1-1,1.6-2.4,1.6-4.1c0-1.8-0.5-3.2-1.5-4c-1-0.8-2.2-1.2-3.6-1.2v-0.3c0.5,0,0.8-0.1,1.2-0.4
				c0.3-0.2,0.5-0.6,0.7-0.9C55.4,127.1,55.5,126.4,55.5,125.8z"/>
			<path fill="#375C78" d="M88,122.4c0.3,0.8,0.5,1.6,0.5,2.4c0,0.8-0.1,1.5-0.3,2.2c-0.2,0.6-0.4,1.2-0.8,1.8
				c-0.8,1.3-2.2,2.1-4.1,2.4c0.8,0.2,1.6,0.7,2.3,1.3c0.7,0.6,1.4,1.5,2,2.5c1.6,2.8,2.9,4.6,3.8,5.4c0.7,0.6,1.5,0.9,2.5,0.9v0.3
				h-4.1c-2.8,0-4.9-0.3-6.1-0.9c-1.7-0.9-3-2.4-3.7-4.6c-0.2-0.6-0.4-1.3-0.5-2c-0.1-0.7-0.3-1.2-0.4-1.5c-0.1-0.3-0.2-0.6-0.3-0.9
				c-0.1-0.3-0.3-0.5-0.4-0.6c-0.3-0.3-0.6-0.5-0.9-0.6v-0.3h0.5c1.3,0,2.2-0.6,2.8-1.7c0.3-0.6,0.5-1.3,0.6-2
				c0.1-0.7,0.1-1.1,0.1-1.3s0-0.3,0-0.3c-0.2-2.9-1.4-4.3-3.7-4.3h-1.4v18.8c0,0.6,0.2,1,0.6,1.5c0.4,0.4,0.9,0.6,1.5,0.6h0.4v0.3
				H67.1v-0.3h0.4c0.6,0,1-0.2,1.5-0.6c0.4-0.4,0.6-0.9,0.6-1.4v-18.1c0-0.8-0.4-1.4-1-1.8c-0.3-0.2-0.7-0.3-1-0.3h-0.4v-0.3h12.8
				C84.1,118.8,86.8,120,88,122.4z"/>
			<path fill="#375C78" d="M105.8,118.4c2.8,0,5.2,0.5,7.3,1.4c2,0.9,3.6,2.3,4.7,4.1c1.1,1.8,1.6,3.9,1.6,6.4
				c0,3.7-1.2,6.6-3.6,8.7c-2.4,2.1-5.7,3.1-10,3.1c-4.2,0-7.5-1-9.9-3.1c-2.4-2.1-3.6-5-3.6-8.7c0-3.7,1.2-6.6,3.6-8.7
				C98.3,119.4,101.6,118.4,105.8,118.4z M101.2,137.8c1.1,1.8,2.7,2.7,4.7,2.7c2,0,3.5-0.9,4.7-2.7c1.1-1.8,1.7-4.3,1.7-7.5
				c0-3.2-0.6-5.7-1.7-7.5c-1.1-1.8-2.7-2.7-4.7-2.7c-2,0-3.5,0.9-4.7,2.7c-1.1,1.8-1.7,4.3-1.7,7.5C99.5,133.5,100,136,101.2,137.8
				z"/>
			<path fill="#375C78" d="M147.5,119.2c-0.5,0-1,0.2-1.4,0.6c-0.4,0.4-0.6,0.8-0.6,1.4V138c0,1.6,0.1,2.9,0.3,3.7l0.1,0.5h-0.3
				L130,128.2v11.1c0,0.8,0.3,1.4,1,1.7c0.3,0.2,0.6,0.3,1,0.3h0.6v0.3h-11.9v-0.3h0.6c0.5,0,1-0.2,1.4-0.6c0.4-0.4,0.6-0.9,0.6-1.4
				v-16.9c0-1.5-0.1-2.7-0.3-3.6l-0.1-0.5h0.3l15.6,13.9v-11.1c0-0.6-0.2-1-0.6-1.4c-0.4-0.4-0.9-0.6-1.4-0.6h-0.6v-0.3h11.9v0.3
				H147.5z"/>
			<path fill="#375C78" d="M149.4,130.2c0-2.5,0.6-4.6,1.7-6.4c1.1-1.8,2.8-3.1,4.9-4.1c2.1-0.9,4.8-1.4,7.9-1.4
				c3.1,0,5.8,0.5,8.2,1.5l-0.3,6.2h-0.3c-0.6-2.2-1.5-3.8-2.7-4.7c-1.2-0.9-2.7-1.4-4.5-1.4c-2.4,0-4.3,0.9-5.6,2.7
				c-1.3,1.8-2,4.3-2,7.5c0,3.2,0.6,5.7,1.9,7.5c1.3,1.8,3,2.8,5.2,2.8c2.6,0,4.4-0.6,5.6-1.8c1.1-1.1,1.9-3.3,2.5-6.5h0.3l0.8,5.9
				c-1.6,2.7-4.7,4-9.1,4c-4.5,0-8-1.1-10.5-3.1C150.7,136.9,149.4,134,149.4,130.2z"/>
			<path fill="#375C78" d="M188.9,118.4c2.8,0,5.2,0.5,7.3,1.4c2,0.9,3.6,2.3,4.7,4.1c1.1,1.8,1.6,3.9,1.6,6.4
				c0,3.7-1.2,6.6-3.6,8.7c-2.4,2.1-5.7,3.1-10,3.1c-4.2,0-7.5-1-9.9-3.1c-2.4-2.1-3.6-5-3.6-8.7c0-3.7,1.2-6.6,3.6-8.7
				C181.3,119.4,184.6,118.4,188.9,118.4z M184.2,137.8c1.1,1.8,2.7,2.7,4.7,2.7c2,0,3.5-0.9,4.7-2.7c1.1-1.8,1.7-4.3,1.7-7.5
				c0-3.2-0.6-5.7-1.7-7.5c-1.1-1.8-2.7-2.7-4.7-2.7c-2,0-3.5,0.9-4.7,2.7c-1.1,1.8-1.7,4.3-1.7,7.5
				C182.5,133.5,183.1,136,184.2,137.8z"/>
		</g>
		<g>
			<path fill="#CD7B33" d="M60.1,148.2h7.3l1,2.8l-1.1,0.4c-0.2-0.4-0.4-0.7-0.5-0.9c-0.2-0.2-0.4-0.4-0.6-0.5
				c-0.2-0.1-0.5-0.2-0.7-0.3c-0.2,0-0.5,0-1,0h-1.1v2.3h0.6c0.2,0,0.4,0,0.5-0.1c0.1-0.1,0.2-0.1,0.3-0.2c0.1-0.1,0.1-0.3,0.1-0.5
				v-0.5h1.1v3.9h-1.1V154c0-0.2,0-0.3,0-0.4c0-0.1-0.1-0.2-0.2-0.2c-0.1-0.1-0.1-0.1-0.2-0.1c-0.1,0-0.2,0-0.5,0h-0.5v1.8
				c0,0.2,0,0.4,0.1,0.4c0,0.1,0.1,0.1,0.2,0.2c0.1,0,0.2,0.1,0.5,0.1h0.4v1.2h-4.3v-1.2h0.3c0.3,0,0.5,0,0.6-0.1
				c0.1-0.1,0.1-0.2,0.1-0.5v-5c0-0.2,0-0.4-0.1-0.5c0-0.1-0.1-0.1-0.2-0.2c-0.1,0-0.3-0.1-0.5-0.1h-0.3V148.2z"/>
			<path fill="#CD7B33" d="M74.6,148.2h2l2.6,6.8c0.1,0.4,0.3,0.6,0.4,0.7c0.1,0.1,0.3,0.1,0.6,0.1v1.2h-4.2v-1.2l0.3,0
				c0.2,0,0.4,0,0.5-0.1c0.1-0.1,0.1-0.1,0.1-0.2c0-0.1,0-0.2-0.1-0.5l-0.3-0.8h-2.7l-0.3,0.9c-0.1,0.2-0.1,0.3-0.1,0.4
				c0,0.1,0,0.1,0.1,0.2c0,0.1,0.1,0.1,0.2,0.1c0.1,0,0.3,0,0.6,0v1.2H71v-1.2c0.2,0,0.4,0,0.5-0.1c0.1,0,0.2-0.1,0.2-0.2
				s0.1-0.2,0.2-0.4L74.6,148.2z M74.4,152.9h1.7l-0.8-2.4L74.4,152.9z"/>
			<path fill="#CD7B33" d="M83.3,148.2h5.4c0.3,0,0.7,0,1.1,0.1c0.4,0.1,0.8,0.2,1.1,0.4c0.3,0.2,0.6,0.5,0.8,0.8
				c0.2,0.3,0.3,0.7,0.3,1.1c0,0.7-0.2,1.2-0.7,1.6c-0.5,0.4-1,0.7-1.7,0.8l1.8,2.1l0.1,0.1c0.1,0.1,0.2,0.2,0.3,0.3
				c0.1,0.1,0.2,0.1,0.3,0.1c0.1,0,0.2,0,0.4,0h0.4v1.2h-2.8l-2.8-3.8h-0.7v1.7c0,0.3,0,0.5,0.1,0.6c0,0.1,0.1,0.1,0.2,0.2
				c0.1,0,0.2,0.1,0.4,0.1h0.4v1.2h-4.3v-1.2h0.4c0.2,0,0.4,0,0.4-0.1c0.1,0,0.2-0.1,0.2-0.2c0-0.1,0-0.2,0-0.5v-4.9
				c0-0.2,0-0.3,0-0.4c0-0.1-0.1-0.1-0.2-0.2c-0.1,0-0.2-0.1-0.3-0.1l-0.2,0h-0.3V148.2z M86.5,149.6v2.3h1.3c0.5,0,0.9,0,1.1-0.1
				c0.3-0.1,0.4-0.2,0.6-0.4c0.1-0.2,0.2-0.4,0.2-0.6c0-0.2-0.1-0.4-0.2-0.6c-0.1-0.2-0.3-0.3-0.5-0.4c-0.2-0.1-0.6-0.1-1.1-0.1
				H86.5z"/>
			<path fill="#CD7B33" d="M96,148.2h4l1.5,5.3l1.6-5.3h4v1.2h-0.4c-0.2,0-0.4,0-0.5,0.1c-0.1,0.1-0.1,0.3-0.1,0.6v5
				c0,0.2,0,0.4,0,0.4c0,0.1,0.1,0.1,0.2,0.2c0.1,0.1,0.2,0.1,0.4,0.1h0.5v1.2h-4.2v-1.2h0.3c0.2,0,0.4,0,0.5-0.1
				c0.1,0,0.1-0.1,0.2-0.2c0-0.1,0.1-0.2,0.1-0.4v-5.4l-2.1,7.3h-1.2l-2.1-7v5.3c0,0.1,0,0.2,0.1,0.3c0,0.1,0.1,0.1,0.2,0.2
				c0.1,0,0.2,0.1,0.4,0.1h0.4v1.2H96v-1.2h0.4c0.2,0,0.4,0,0.5-0.1c0.1,0,0.1-0.1,0.2-0.2c0-0.1,0.1-0.2,0.1-0.5v-4.9
				c0-0.2,0-0.4,0-0.4c0-0.1-0.1-0.2-0.2-0.2c-0.1,0-0.2-0.1-0.4-0.1H96V148.2z"/>
			<path fill="#CD7B33" d="M124.2,148.2l0.8,2.9l-1.2,0.3c-0.4-0.7-0.8-1.2-1.3-1.5c-0.5-0.3-1-0.5-1.6-0.5c-0.4,0-0.6,0.1-0.9,0.2
				c-0.2,0.1-0.3,0.3-0.3,0.5c0,0.2,0.1,0.4,0.3,0.6c0.2,0.2,0.5,0.3,1,0.5l1.7,0.5c0.9,0.3,1.6,0.6,2,1.1c0.4,0.4,0.6,1,0.6,1.6
				c0,0.8-0.3,1.4-0.9,1.9c-0.7,0.6-1.5,0.9-2.5,0.9c-0.5,0-0.9-0.1-1.3-0.2c-0.4-0.1-0.8-0.3-1.2-0.6l-0.3,0.6h-0.9l-0.6-3.4
				l1.2-0.3c0.3,0.7,0.7,1.3,1.3,1.7s1.2,0.7,1.9,0.7c0.3,0,0.6,0,0.8-0.1c0.2-0.1,0.4-0.2,0.5-0.3c0.1-0.1,0.2-0.3,0.2-0.4
				c0-0.3-0.1-0.5-0.4-0.6c-0.2-0.2-0.7-0.4-1.3-0.5l-1.5-0.4c-0.2-0.1-0.5-0.2-0.9-0.4c-0.4-0.2-0.7-0.4-0.9-0.5
				c-0.2-0.2-0.4-0.4-0.5-0.7c-0.1-0.3-0.2-0.6-0.2-0.9c0-0.5,0.1-0.9,0.4-1.3c0.3-0.4,0.6-0.7,1.2-1c0.5-0.2,1.1-0.4,1.7-0.4
				c0.8,0,1.4,0.2,2.1,0.6l0.2-0.4H124.2z"/>
			<path fill="#CD7B33" d="M128.4,148.2h4.3v1.2h-0.4c-0.2,0-0.3,0-0.4,0.1c-0.1,0-0.1,0.1-0.2,0.2c0,0.1-0.1,0.3-0.1,0.5v3.2
				c0,0.6,0.1,1,0.2,1.3c0.1,0.3,0.3,0.5,0.5,0.7c0.2,0.2,0.5,0.2,0.9,0.2c0.3,0,0.7-0.1,0.9-0.3c0.3-0.2,0.5-0.4,0.6-0.6
				c0.1-0.3,0.2-0.7,0.2-1.3v-3.5c0-0.1,0-0.3-0.1-0.3c-0.1-0.1-0.1-0.1-0.2-0.2c-0.1,0-0.2,0-0.4,0h-0.3v-1.2h3.6v1.2h-0.3
				c-0.3,0-0.5,0-0.5,0.1c-0.1,0.1-0.2,0.1-0.2,0.2c0,0.1-0.1,0.2-0.1,0.5v3.5c0,0.6-0.1,1.2-0.3,1.6c-0.3,0.6-0.7,1-1.2,1.4
				c-0.6,0.3-1.2,0.5-2,0.5c-0.5,0-1-0.1-1.5-0.2c-0.4-0.2-0.8-0.4-1.1-0.7c-0.3-0.3-0.5-0.6-0.7-1c-0.1-0.3-0.2-0.9-0.2-1.5v-3.4
				c0-0.3,0-0.5-0.1-0.6c0-0.1-0.1-0.2-0.2-0.2c-0.1,0-0.2-0.1-0.4-0.1h-0.4V148.2z"/>
			<path fill="#CD7B33" d="M140.8,148.2h4.6c0.6,0,1.1,0.1,1.5,0.2c0.4,0.1,0.7,0.3,1,0.5c0.3,0.2,0.5,0.5,0.6,0.9
				c0.2,0.3,0.2,0.7,0.2,1.1c0,0.8-0.3,1.4-0.9,1.9c-0.6,0.5-1.4,0.8-2.4,0.8H144v1.6c0,0.2,0,0.3,0,0.4c0,0.1,0.1,0.1,0.2,0.2
				c0.1,0,0.2,0.1,0.4,0.1h0.4v1.2h-4.3v-1.2h0.3c0.3,0,0.4,0,0.5-0.1c0.1,0,0.1-0.1,0.2-0.2c0-0.1,0.1-0.3,0.1-0.5v-4.8
				c0-0.3,0-0.4-0.1-0.5c0-0.1-0.1-0.1-0.2-0.2c-0.1,0-0.2-0.1-0.4-0.1h-0.4V148.2z M144,149.6v2.5h0.7c0.5,0,0.8,0,1-0.1
				c0.2-0.1,0.4-0.2,0.5-0.4c0.1-0.2,0.2-0.4,0.2-0.7c0-0.4-0.2-0.7-0.5-1c-0.2-0.2-0.6-0.3-1-0.3H144z"/>
			<path fill="#CD7B33" d="M151.9,148.2h4.6c0.6,0,1.1,0.1,1.5,0.2c0.4,0.1,0.7,0.3,1,0.5c0.3,0.2,0.5,0.5,0.6,0.9
				c0.2,0.3,0.2,0.7,0.2,1.1c0,0.8-0.3,1.4-0.9,1.9c-0.6,0.5-1.4,0.8-2.4,0.8h-1.5v1.6c0,0.2,0,0.3,0,0.4c0,0.1,0.1,0.1,0.2,0.2
				c0.1,0,0.2,0.1,0.4,0.1h0.4v1.2h-4.3v-1.2h0.3c0.3,0,0.4,0,0.5-0.1c0.1,0,0.1-0.1,0.2-0.2c0-0.1,0.1-0.3,0.1-0.5v-4.8
				c0-0.3,0-0.4-0.1-0.5c0-0.1-0.1-0.1-0.2-0.2c-0.1,0-0.2-0.1-0.4-0.1h-0.4V148.2z M155.1,149.6v2.5h0.7c0.5,0,0.8,0,1-0.1
				c0.2-0.1,0.4-0.2,0.5-0.4c0.1-0.2,0.2-0.4,0.2-0.7c0-0.4-0.2-0.7-0.5-1c-0.2-0.2-0.6-0.3-1-0.3H155.1z"/>
			<path fill="#CD7B33" d="M163,148.2h4.3v1.2h-0.4c-0.2,0-0.3,0-0.4,0c-0.1,0-0.2,0.1-0.2,0.2c0,0.1-0.1,0.2-0.1,0.4v5
				c0,0.2,0,0.3,0,0.4c0,0,0.1,0.1,0.1,0.1c0.1,0,0.2,0,0.3,0c0.6,0,1-0.1,1.4-0.2c0.3-0.1,0.7-0.4,0.9-0.7c0.3-0.3,0.5-0.8,0.7-1.3
				l1.2,0.4l-1.2,3.2H163v-1.2h0.4c0.2,0,0.3,0,0.4-0.1c0.1,0,0.2-0.1,0.2-0.2c0-0.1,0.1-0.2,0.1-0.4v-5c0-0.2,0-0.4-0.1-0.5
				c0-0.1-0.1-0.2-0.2-0.2c-0.1,0-0.2-0.1-0.4-0.1H163V148.2z"/>
			<path fill="#CD7B33" d="M173.3,148.2h4.4v1.2h-0.3c-0.2,0-0.4,0-0.4,0.1c-0.1,0-0.1,0.1-0.1,0.2c0,0.1,0.1,0.3,0.2,0.5l1.2,1.9
				l1.3-2c0.1-0.2,0.2-0.3,0.2-0.3c0,0,0-0.1,0-0.1c0-0.1,0-0.1-0.1-0.2c0,0-0.2-0.1-0.3-0.1h-0.4v-1.2h3.5v1.2
				c-0.3,0-0.5,0-0.6,0.1s-0.3,0.2-0.4,0.5l-2.3,3.4v1.6c0,0.3,0,0.5,0.1,0.5c0,0.1,0.1,0.1,0.2,0.2c0.1,0,0.3,0.1,0.5,0.1h0.3v1.2
				h-4.3v-1.2h0.2c0.3,0,0.5,0,0.6-0.1s0.1-0.1,0.2-0.2c0-0.1,0.1-0.3,0.1-0.6v-1.4l-2.3-3.6c-0.2-0.3-0.3-0.5-0.5-0.5
				c-0.1,0-0.3-0.1-0.6-0.1V148.2z"/>
		</g>
		<polygon fill-rule="evenodd" clip-rule="evenodd" fill="#375C78" points="48.7,149.5 49.6,151.5 51.9,151.8 50.3,153.4 
			50.6,155.6 48.7,154.6 46.7,155.6 47.1,153.4 45.5,151.8 47.7,151.5 		"/>
		<polygon fill-rule="evenodd" clip-rule="evenodd" fill="#375C78" points="192.8,149.5 193.8,151.5 196,151.8 194.4,153.4 
			194.8,155.6 192.8,154.6 190.8,155.6 191.2,153.4 189.6,151.8 191.8,151.5 		"/>
	</g>
</g>
</svg>
