<?xml version="1.0" encoding="utf-8"?>
<!-- Generator: Adobe Illustrator 18.1.1, SVG Export Plug-In . SVG Version: 6.00 Build 0)  -->
<!DOCTYPE svg PUBLIC "-//W3C//DTD SVG 1.1//EN" "http://www.w3.org/Graphics/SVG/1.1/DTD/svg11.dtd">
<svg version="1.1" id="Layer_1" xmlns="http://www.w3.org/2000/svg" xmlns:xlink="http://www.w3.org/1999/xlink" x="0px" y="0px"
	 viewBox="0 0 167 91.8" enable-background="new 0 0 167 91.8" xml:space="preserve">
<g>
	<g>
		<path fill="#FFFFFF" d="M64.2,82.6c-0.2,1-0.7,1.9-1.3,2.7s-1.3,1.4-2.2,1.9c-0.9,0.5-1.8,0.8-2.9,1s-2.2,0.1-3.4-0.2l-7.7-1.9
			c-0.1,0-0.2-0.1-0.2-0.2c0,0,0-0.1,0.1-0.1c0,0,0.1,0,0.2,0l0.6,0.1c0.1,0,0.2,0,0.2-0.1s0.1-0.3,0.2-0.6l3-12.4
			c0.1-0.4,0.1-0.6,0.1-0.6s-0.1-0.1-0.2-0.2L50.3,72c-0.1,0-0.2-0.1-0.2-0.1c0,0,0-0.1,0-0.1c0-0.1,0.1-0.1,0.2-0.1l7.7,1.9
			c1.1,0.3,2.1,0.7,3,1.3c0.9,0.6,1.6,1.3,2.1,2.2s0.9,1.7,1.1,2.7C64.4,80.7,64.4,81.7,64.2,82.6z M57.4,84.1
			c0.6-1.9,1-3.8,1.4-5.8c0.1-0.5,0.2-1.1,0.2-1.6c0-0.5,0-1,0-1.4c-0.1-0.4-0.2-0.7-0.4-1c-0.2-0.3-0.5-0.5-0.9-0.6l-1.2-0.3
			c-0.2,0-0.2,0-0.3,0.1L53,87.2c0,0.1,0,0.1,0.2,0.2l1.3,0.3c0.5,0.1,0.8,0.1,1.1-0.1c0.3-0.2,0.6-0.4,0.8-0.8
			c0.2-0.4,0.4-0.8,0.6-1.3C57.1,85,57.3,84.6,57.4,84.1z"/>
		<path fill="#FFFFFF" d="M80.6,91.7c0,0.1-0.1,0.1-0.2,0.1L72.6,91c-0.1,0-0.2-0.1-0.2-0.1c0,0,0-0.1,0-0.1c0,0,0.1-0.1,0.2,0
			l0.6,0.1c0.2,0,0.3,0,0.3-0.1c0.1-0.1,0.1-0.3,0-0.7l-0.9-4.2c0,0,0-0.1,0-0.1c0,0-0.1,0-0.2-0.1l-3.9-0.4c-0.1,0-0.1,0-0.2,0
			c0,0,0,0.1-0.1,0.1l-0.5,1.1c-0.3,0.6-0.4,1.2-0.4,1.6c0,0.5,0,0.9,0.2,1.2c0.1,0.3,0.3,0.6,0.5,0.7c0.2,0.2,0.5,0.3,0.7,0.3
			l0.2,0c0.1,0,0.2,0,0.2,0.1s0,0.1,0,0.1c0,0.1-0.1,0.1-0.2,0.1l-4.7-0.4c-0.1,0-0.2-0.1-0.2-0.1c0,0,0-0.1,0-0.1
			c0,0,0.1-0.1,0.2,0l0,0c0.1,0,0.3,0,0.5-0.1c0.2-0.1,0.5-0.2,0.7-0.5s0.6-0.6,0.9-1.1c0.3-0.5,0.6-1.1,1-2l4.2-10.2
			c0,0,0-0.1,0.1-0.1c0,0,0.1,0,0.2,0l3.8,0.4c0.1,0,0.1,0,0.2,0.1c0,0,0,0.1,0,0.1l3.5,14.1c0.1,0.4,0.2,0.6,0.2,0.7
			c0.1,0.1,0.2,0.1,0.3,0.1l0.5,0c0.1,0,0.2,0,0.2,0.1C80.6,91.6,80.6,91.6,80.6,91.7z M71.1,78.8L71.1,78.8l-2.5,6.1
			c0,0.1,0,0.1,0.2,0.1l3.5,0.3c0.1,0,0.1,0,0.2,0c0,0,0.1-0.1,0-0.1L71.1,78.8z"/>
		<path fill="#FFFFFF" d="M89.7,91.5c0,0.1-0.1,0.1-0.2,0.1l-7.1,0.1c-0.1,0-0.2,0-0.2-0.1c0,0,0-0.1,0-0.1c0,0,0.1-0.1,0.2-0.1
			l0.6,0c0.1,0,0.2,0,0.2-0.1c0-0.1,0-0.3,0-0.7l-0.1-12.8c0-0.4,0-0.6,0-0.7c0-0.1-0.1-0.1-0.2-0.1l-0.6,0c-0.1,0-0.2,0-0.2-0.1
			s0-0.1,0-0.1c0-0.1,0.1-0.1,0.2-0.2l7.1-0.1c0.1,0,0.2,0,0.2,0.1c0,0,0,0.1,0,0.1c0,0-0.1,0.1-0.2,0.1l-0.6,0
			c-0.1,0-0.2,0-0.2,0.1c0,0.1,0,0.3,0,0.7l0.1,12.8c0,0.4,0,0.6,0,0.7c0,0.1,0.1,0.1,0.2,0.1l0.6,0c0.1,0,0.2,0,0.2,0.1
			C89.7,91.4,89.7,91.4,89.7,91.5z"/>
		<path fill="#FFFFFF" d="M107.3,89.6c0.1,0.1,0,0.2-0.1,0.2c-0.3,0.2-0.7,0.4-1.2,0.5c-0.5,0.1-1,0.2-1.6,0.3
			c-1.4,0.1-2.5,0-3.3-0.6c-0.8-0.5-1.2-1.4-1.3-2.5c0-0.4-0.1-0.9-0.1-1.4c0-0.5-0.1-0.9-0.2-1.3c-0.1-0.3-0.1-0.6-0.2-0.8
			s-0.2-0.4-0.3-0.5c-0.1-0.1-0.3-0.2-0.4-0.2s-0.3,0-0.5,0l-0.6,0.1c-0.1,0-0.2,0.1-0.2,0.1l0.7,6.5c0,0.4,0.1,0.6,0.1,0.6
			s0.1,0.1,0.2,0.1l0.6-0.1c0.1,0,0.2,0,0.2,0c0,0,0,0.1,0,0.1c0,0.1-0.1,0.1-0.2,0.1l-7.1,0.7c-0.1,0-0.2,0-0.2-0.1
			c0,0,0-0.1,0-0.1c0,0,0.1-0.1,0.2-0.1l0.6-0.1c0.1,0,0.2-0.1,0.2-0.1s0-0.3,0-0.7l-1.3-12.7c0-0.4-0.1-0.6-0.1-0.6
			s-0.1-0.1-0.2-0.1l-0.6,0.1c-0.1,0-0.2,0-0.2,0c0,0,0-0.1,0-0.1c0-0.1,0.1-0.2,0.2-0.2l7.9-0.8c0.7-0.1,1.4-0.1,2,0
			c0.7,0,1.3,0.2,1.8,0.4c0.6,0.2,1,0.6,1.4,1s0.6,1,0.7,1.7c0.1,0.7,0,1.2-0.3,1.7c-0.3,0.5-0.6,0.8-1.1,1.1
			c-0.5,0.3-1,0.5-1.5,0.7s-1.1,0.3-1.6,0.3l0,0c0.6-0.1,1.2-0.1,1.9,0c0.6,0,1.2,0.2,1.8,0.4c0.5,0.2,1,0.6,1.4,1
			c0.4,0.5,0.6,1.1,0.7,1.8l0.2,2.3c0,0.4,0.1,0.8,0.2,1c0.1,0.3,0.3,0.4,0.7,0.3c0.1,0,0.3-0.1,0.4-0.1c0.1-0.1,0.2-0.1,0.3-0.2
			c0.1-0.1,0.1-0.1,0.2,0C107.3,89.6,107.3,89.6,107.3,89.6z M99.1,79.6c0-0.4-0.1-0.9-0.2-1.3c-0.1-0.4-0.2-0.7-0.3-1
			c-0.1-0.3-0.3-0.5-0.5-0.7c-0.2-0.2-0.5-0.2-0.8-0.2l-0.6,0.1c-0.2,0-0.2,0.1-0.2,0.2l0.7,6.3c0,0.1,0.1,0.1,0.2,0.1l0.5-0.1
			c0.4,0,0.6-0.1,0.8-0.3s0.3-0.4,0.4-0.7c0.1-0.3,0.1-0.6,0.1-1C99.2,80.6,99.2,80.1,99.1,79.6z"/>
		<path fill="#FFFFFF" d="M120.7,71.6C120.7,71.6,120.7,71.7,120.7,71.6c0,0.1-0.1,0.2-0.2,0.2l-0.1,0c-0.5,0.1-0.8,0.4-1.1,1
			c-0.2,0.5-0.5,1.2-0.7,1.9c-0.1,0.2-0.1,0.6-0.3,1c-0.1,0.5-0.2,1-0.4,1.5c-0.1,0.5-0.3,1.1-0.4,1.7c-0.1,0.6-0.3,1.1-0.4,1.5
			c0,0.1-0.1,0.2,0,0.3s0,0.2,0.1,0.3l1.3,5.2c0.1,0.4,0.2,0.6,0.2,0.6c0,0.1,0.1,0.1,0.2,0.1l0.6-0.2c0.1,0,0.2,0,0.2,0
			c0,0,0,0.1,0.1,0.1c0,0.1,0,0.1-0.2,0.2l-6.9,1.7c-0.1,0-0.2,0-0.2-0.1c0,0,0-0.1,0-0.1c0,0,0.1-0.1,0.2-0.1l0.6-0.2
			c0.1,0,0.2-0.1,0.2-0.2c0-0.1,0-0.3-0.1-0.6l-1.2-4.9c0-0.2-0.1-0.3-0.3-0.5l-5.2-6.2c-0.2-0.3-0.4-0.5-0.5-0.5
			c-0.1-0.1-0.3-0.1-0.4-0.1l-0.4,0.1c-0.1,0-0.2,0-0.2,0c0,0,0-0.1-0.1-0.1c0-0.1,0-0.1,0.2-0.2l7.9-2c0.1,0,0.2,0,0.2,0.1
			c0,0,0,0.1,0,0.1c0,0-0.1,0.1-0.2,0.1l-0.6,0.2c-0.2,0-0.3,0.1-0.3,0.2c-0.1,0.1,0,0.3,0.3,0.6L117,80c0.1-0.5,0.2-1,0.4-1.6
			c0.1-0.6,0.3-1.1,0.4-1.7s0.2-1.1,0.3-1.6s0.2-0.9,0.2-1.1c0-0.5,0-0.9-0.2-1.1c-0.2-0.2-0.6-0.3-1.1-0.2l-0.6,0.1
			c-0.1,0-0.2,0-0.2,0s0-0.1-0.1-0.1c0-0.1,0-0.1,0.2-0.2l4.1-1C120.6,71.5,120.7,71.5,120.7,71.6z"/>
	</g>
	<g>
		<g>
			<g>
				<path fill="#FFFFFF" stroke="#FFFFFF" stroke-width="0.7846" d="M74.7,41.7c0,0-4.1,0.5-5.2,3.8c-2.4,7,6.7,4.9,14.1,8.7
					c-0.2-8.8,6.8-16.8-3-15.6C76.5,39.2,74.7,41.7,74.7,41.7z"/>
				<path fill="#FFFFFF" stroke="#FFFFFF" stroke-width="0.7846" d="M90.1,68.3c0,0-2.5,3.3-5.9,2.6c-7.3-1.5-0.9-8.3-0.4-16.6
					c7.5,4.6,17.9,2.6,11.9,10.5C93.2,68,90.1,68.3,90.1,68.3z"/>
				<path fill="#FFFFFF" stroke="#FFFFFF" stroke-width="0.7846" d="M68,64.9c0,0-0.1,3.6,3.4,4c7.6,0.7,6.8-7.1,12.4-14.7
					c-10,2-17.9-2.7-18.3,6C65.4,63.8,68,64.9,68,64.9z"/>
				<path fill="#FFFFFF" stroke="#FFFFFF" stroke-width="0.7846" d="M101.5,47.1c0,0,3,2,1.2,5.1c-3.8,6.8-9.6,1.6-18.9,1.9
					c7.4-7.2,8.2-16.5,15.3-11.8C102.1,44.3,101.5,47.1,101.5,47.1z"/>
			</g>
		</g>
	</g>
	<g>
		<g>
			<path fill="#FFFFFF" d="M22.7,28.4c0.9,1.1,1.4,2.1,1.5,3.2c0.1,1,0,2-0.3,3c-0.4,1-0.9,1.9-1.7,2.7c-0.7,0.9-1.6,1.7-2.4,2.4
				l-2.4,1.9c-0.2,0.1-0.2,0.3-0.1,0.4l5.5,6.7c0.4,0.5,0.6,0.7,0.7,0.8s0.2,0,0.4-0.1l1.8-1.5c0.1-0.1,0.2-0.1,0.3-0.1
				c0.1,0,0.1,0.1,0.2,0.1c0.1,0.1,0,0.2-0.1,0.4l-10.2,8.3c-0.2,0.1-0.3,0.2-0.4,0.1c0,0-0.1-0.1-0.1-0.2c0-0.1,0-0.2,0.2-0.3
				l0.8-0.7c0.1-0.1,0.2-0.2,0.1-0.3c0-0.1-0.3-0.4-0.7-0.9L2.4,37.9c-0.4-0.5-0.6-0.7-0.7-0.8c-0.1-0.1-0.2,0-0.4,0.1l-0.8,0.7
				C0.4,37.9,0.3,38,0.2,38c-0.1,0-0.1-0.1-0.1-0.1C0,37.7,0,37.6,0.2,37.5l9.9-8.1c0.9-0.7,1.9-1.4,3-2.1s2.2-1.1,3.3-1.3
				c1.1-0.2,2.2-0.2,3.3,0.2C20.8,26.5,21.8,27.2,22.7,28.4z M15.6,34.1c-1.5-1.8-2.7-3-3.6-3.5c-1-0.6-1.8-0.5-2.7,0.1l-0.4,0.4
				c-0.2,0.2-0.3,0.3-0.2,0.4l8.1,9.8c0.1,0.1,0.2,0.1,0.4-0.1l0.5-0.4c0.5-0.4,0.8-0.8,0.9-1.2c0.1-0.4,0.1-0.9-0.1-1.4
				c-0.2-0.5-0.5-1.1-1-1.8C16.9,35.7,16.3,35,15.6,34.1z"/>
			<path fill="#FFFFFF" d="M43.4,18c0,0,0,0.1,0,0.1c0,0-0.1,0.1-0.2,0.2l-0.1,0c-0.6,0.3-0.8,0.9-0.7,1.8c0.2,0.9,0.7,2.3,1.6,4.2
				l2.7,5.7c0.6,1.2,0.9,2.3,0.9,3.1c0,0.9-0.2,1.6-0.6,2.3c-0.4,0.7-1,1.2-1.8,1.7s-1.7,1-2.7,1.5c-1.2,0.6-2.3,0.9-3.4,1.1
				c-1,0.2-1.9,0.2-2.7,0.1c-0.8-0.1-1.5-0.4-2-0.8c-0.6-0.4-1-0.9-1.3-1.5L28,26.5c-0.2-0.4-0.3-0.6-0.4-0.7
				c-0.1-0.1-0.2-0.1-0.3,0l-0.7,0.3c-0.1,0.1-0.2,0.1-0.2,0s-0.1-0.1-0.1-0.1c0-0.1,0-0.2,0.2-0.2l7.8-3.7c0.2-0.1,0.3-0.1,0.3,0
				c0,0,0,0.1,0,0.1s-0.1,0.1-0.2,0.2l-0.7,0.3c-0.1,0.1-0.2,0.1-0.2,0.2s0.1,0.3,0.3,0.8l5.5,11.7c0.5,1.1,1.2,1.8,2,2.1
				c0.8,0.3,1.8,0.2,2.8-0.3c0.9-0.4,1.6-0.9,2.1-1.4s0.8-1.1,0.9-1.7c0.1-0.6,0.1-1.3-0.1-2c-0.2-0.7-0.5-1.5-0.8-2.3l-2.4-5.2
				c-0.5-1-1-1.9-1.4-2.5c-0.5-0.6-0.9-1.1-1.3-1.4c-0.4-0.3-0.8-0.5-1.2-0.5c-0.4,0-0.8,0-1.1,0.2l-0.1,0.1c-0.1,0.1-0.2,0.1-0.2,0
				c0,0-0.1-0.1-0.1-0.1c0-0.1,0-0.2,0.2-0.2l4.6-2.1C43.3,17.9,43.4,17.9,43.4,18z"/>
			<path fill="#FFFFFF" d="M69.4,29.3c0.1,0.1,0.1,0.2-0.1,0.3c-0.3,0.3-0.8,0.6-1.4,0.8c-0.6,0.2-1.2,0.4-1.9,0.6
				c-1.7,0.4-3.1,0.4-4.1-0.1c-1-0.5-1.7-1.4-2-2.8c-0.1-0.5-0.3-1.1-0.4-1.7c-0.1-0.6-0.3-1.1-0.4-1.5c-0.1-0.4-0.3-0.7-0.4-1
				s-0.3-0.4-0.5-0.5c-0.2-0.1-0.4-0.2-0.6-0.2c-0.2,0-0.4,0-0.6,0.1l-0.7,0.2c-0.2,0-0.2,0.1-0.2,0.2l1.9,7.7
				c0.1,0.4,0.2,0.7,0.2,0.8c0,0.1,0.1,0.1,0.3,0.1l0.7-0.2c0.1,0,0.2,0,0.2,0s0.1,0.1,0.1,0.1c0,0.1,0,0.2-0.2,0.2L51,34.5
				c-0.2,0-0.3,0-0.3-0.1c0,0,0-0.1,0-0.1c0-0.1,0.1-0.1,0.2-0.1l0.7-0.2c0.1,0,0.2-0.1,0.2-0.2c0-0.1,0-0.4-0.2-0.8l-3.8-15.1
				c-0.1-0.4-0.2-0.7-0.2-0.8c0-0.1-0.1-0.1-0.3-0.1l-0.7,0.2c-0.1,0-0.2,0-0.2,0s-0.1-0.1-0.1-0.1c0-0.1,0-0.2,0.2-0.2l9.4-2.3
				c0.8-0.2,1.6-0.3,2.5-0.4c0.8-0.1,1.6,0,2.3,0.2s1.3,0.5,1.8,1c0.5,0.5,0.9,1.1,1.1,2c0.2,0.8,0.2,1.5-0.1,2.1
				c-0.3,0.6-0.6,1.1-1.2,1.6c-0.5,0.4-1.1,0.8-1.7,1.1c-0.7,0.3-1.3,0.5-1.9,0.7l0,0c0.7-0.2,1.5-0.3,2.3-0.4
				c0.8-0.1,1.5,0,2.2,0.2c0.7,0.2,1.3,0.5,1.8,1s0.9,1.2,1.1,2.1l0.7,2.7c0.1,0.5,0.3,0.9,0.4,1.2c0.2,0.3,0.5,0.4,0.9,0.3
				c0.1,0,0.3-0.1,0.4-0.2s0.3-0.2,0.4-0.3c0.1-0.1,0.2-0.1,0.2-0.1C69.3,29.3,69.3,29.3,69.4,29.3z M57.8,18.7
				c-0.1-0.5-0.3-1-0.4-1.5c-0.2-0.5-0.3-0.9-0.6-1.2s-0.5-0.6-0.8-0.7c-0.3-0.1-0.6-0.2-1-0.1l-0.7,0.2c-0.2,0-0.3,0.1-0.2,0.2
				l1.9,7.5c0,0.1,0.1,0.1,0.3,0.1l0.6-0.2c0.4-0.1,0.8-0.3,1-0.5s0.3-0.5,0.4-0.9c0-0.4,0-0.8-0.1-1.3
				C58.1,19.8,57.9,19.3,57.8,18.7z"/>
			<path fill="#FFFFFF" d="M86.4,28.6c0,0.2-0.1,0.3-0.2,0.3L69.6,30c-0.2,0-0.3,0-0.3-0.1c0,0,0-0.1,0-0.1c0-0.1,0.1-0.1,0.2-0.1
				l0.8-0.1c0.1,0,0.2-0.1,0.2-0.1c0-0.1,0-0.4,0-0.8l-1.1-15.6c0-0.4-0.1-0.7-0.1-0.8c0-0.1-0.1-0.1-0.3-0.1l-0.8,0.1
				c-0.1,0-0.2,0-0.2,0c0,0,0-0.1,0-0.1c0-0.1,0.1-0.2,0.2-0.2L84,10.8c0.1,0,0.2,0.1,0.2,0.2l0.5,6.6c0,0.2-0.1,0.3-0.2,0.3
				c-0.1,0-0.1,0-0.1,0c0,0-0.1-0.1-0.1-0.2l0-0.3c0-0.6-0.2-1.2-0.6-1.9c-0.4-0.7-0.9-1.3-1.5-1.9c-0.6-0.6-1.3-1.1-2.1-1.5
				c-0.8-0.4-1.6-0.5-2.5-0.5l-1.3,0.1c-0.2,0-0.3,0.1-0.3,0.2l0.5,7.7c0,0.1,0.1,0.1,0.3,0.1l0.1,0c0.5,0,1-0.2,1.5-0.4
				c0.5-0.2,0.9-0.5,1.3-0.9c0.4-0.3,0.7-0.7,0.9-1.1c0.2-0.4,0.3-0.8,0.3-1.2l0-0.1c0-0.1,0-0.2,0-0.2c0,0,0.1,0,0.1,0
				c0.1,0,0.2,0.1,0.2,0.2l0.5,7.4c0,0.2,0,0.3-0.2,0.3c-0.1,0-0.1,0-0.1,0s-0.1-0.1-0.1-0.2l0-0.1c0-0.4-0.2-0.8-0.5-1.2
				c-0.3-0.4-0.6-0.7-1-1c-0.4-0.3-0.9-0.5-1.4-0.7c-0.5-0.2-1-0.2-1.5-0.2l-0.1,0c-0.2,0-0.3,0.1-0.3,0.2l0.6,8.7
				c0,0.1,0.1,0.1,0.3,0.1l1.1-0.1c0.8-0.1,1.6-0.2,2.3-0.5s1.3-0.7,1.8-1.1s1-0.9,1.3-1.4c0.4-0.5,0.7-1,0.9-1.5
				c0.2-0.5,0.4-0.9,0.5-1.4c0.1-0.4,0.2-0.7,0.1-1l0-0.3c0-0.1,0-0.2,0-0.2c0,0,0.1,0,0.1,0c0.1,0,0.2,0.1,0.2,0.2L86.4,28.6z"/>
			<path fill="#FFFFFF" d="M116.8,32.7c0,0.2-0.2,0.3-0.3,0.3l-22.3-4.1c-0.2,0-0.3-0.1-0.3-0.3c0,0,0-0.1,0.1-0.2s0.2-0.1,0.3,0
				l1,0.2c0.2,0,0.3,0,0.4-0.1c0.1-0.1,0.1-0.5,0.2-1.1l3.9-20.9c0.1-0.6,0.2-1,0.1-1.1c0-0.1-0.1-0.2-0.3-0.2l-1-0.2
				c-0.2,0-0.3-0.1-0.3-0.1c0-0.1,0-0.1,0-0.2c0-0.2,0.2-0.2,0.4-0.2l21.1,3.9c0.2,0,0.3,0.2,0.2,0.4l-1.6,8.9
				c0,0.2-0.2,0.3-0.3,0.3c-0.1,0-0.1,0-0.2-0.1c0,0,0-0.1,0-0.3l0.1-0.4c0.1-0.8,0.1-1.7-0.2-2.7s-0.7-2.1-1.3-3
				c-0.6-1-1.4-1.9-2.3-2.6c-0.9-0.8-2-1.3-3.1-1.5l-1.8-0.3c-0.3,0-0.4,0-0.4,0.1l-1.9,10.4c0,0.1,0.1,0.2,0.3,0.3l0.1,0
				c0.7,0.1,1.4,0.1,2.1,0s1.4-0.4,2-0.7c0.6-0.3,1.1-0.7,1.6-1.2c0.4-0.5,0.7-1,0.8-1.5l0-0.2c0-0.2,0.1-0.3,0.1-0.3
				c0.1,0,0.1,0,0.2,0c0.2,0,0.2,0.2,0.2,0.4l-1.8,10c0,0.2-0.1,0.3-0.3,0.3c-0.1,0-0.1,0-0.2-0.1s-0.1-0.1,0-0.3l0-0.2
				c0.1-0.6,0-1.1-0.2-1.7c-0.2-0.6-0.6-1.2-1-1.7c-0.5-0.5-1-1-1.6-1.4c-0.6-0.4-1.3-0.7-1.9-0.8l-0.1,0c-0.3,0-0.4,0-0.4,0.1
				L104.5,30c0,0.1,0.1,0.2,0.3,0.3l1.5,0.3c1.1,0.2,2.2,0.2,3.2,0.1c1-0.2,1.9-0.5,2.8-0.9c0.8-0.4,1.6-0.9,2.3-1.5
				c0.7-0.6,1.2-1.1,1.7-1.7c0.5-0.6,0.9-1.1,1.2-1.6c0.3-0.5,0.5-0.9,0.5-1.2l0.1-0.3c0-0.2,0.1-0.3,0.1-0.3c0.1,0,0.1,0,0.2,0
				c0.2,0,0.3,0.2,0.2,0.4L116.8,32.7z"/>
			<path fill="#FFFFFF" d="M126,36.8c0,0.1-0.1,0.1-0.3,0.1l-8.1-3c-0.2-0.1-0.2-0.1-0.2-0.2c0,0,0-0.1,0.1-0.1c0,0,0.1,0,0.2,0
				l0.7,0.3c0.1,0,0.2,0,0.3,0c0.1-0.1,0.2-0.3,0.3-0.7l5.3-14.6c0.2-0.4,0.2-0.7,0.2-0.8c0-0.1-0.1-0.2-0.2-0.2l-0.7-0.3
				c-0.1,0-0.2-0.1-0.2-0.1c0,0,0-0.1,0-0.1c0-0.1,0.1-0.1,0.3-0.1l8.1,3c0.2,0.1,0.2,0.1,0.2,0.3c0,0,0,0.1-0.1,0.1s-0.1,0-0.2,0
				l-0.7-0.3c-0.1,0-0.2,0-0.3,0c-0.1,0.1-0.2,0.3-0.3,0.7l-5.3,14.6c-0.2,0.4-0.2,0.7-0.2,0.8c0,0.1,0.1,0.2,0.2,0.2l0.7,0.3
				c0.1,0,0.2,0.1,0.2,0.1C126,36.7,126,36.7,126,36.8z"/>
			<path fill="#FFFFFF" d="M143.6,45.6c0,0.1-0.1,0.2-0.2,0.2c-0.4,0-1-0.1-1.5-0.3c-0.6-0.2-1.2-0.5-1.8-0.9
				c-1.5-0.8-2.5-1.8-2.9-2.9c-0.4-1.1-0.3-2.2,0.4-3.4c0.3-0.5,0.6-1,0.9-1.5c0.3-0.5,0.6-1,0.7-1.4c0.2-0.4,0.3-0.7,0.4-1
				c0-0.3,0-0.5,0-0.7c0-0.2-0.1-0.4-0.3-0.5s-0.3-0.3-0.5-0.4l-0.7-0.4c-0.2-0.1-0.2-0.1-0.3,0l-3.8,6.9c-0.2,0.4-0.3,0.6-0.4,0.7
				c0,0.1,0,0.2,0.2,0.2l0.7,0.4c0.1,0.1,0.2,0.1,0.2,0.2c0,0.1,0,0.1,0,0.1c-0.1,0.1-0.2,0.1-0.3,0l-7.6-4.2
				c-0.2-0.1-0.2-0.2-0.2-0.3c0,0,0-0.1,0.1-0.1c0,0,0.1,0,0.2,0l0.7,0.4c0.1,0.1,0.2,0.1,0.3,0c0.1-0.1,0.2-0.3,0.4-0.7l7.6-13.6
				c0.2-0.4,0.3-0.6,0.4-0.7c0-0.1,0-0.2-0.2-0.2l-0.7-0.4c-0.1-0.1-0.2-0.1-0.2-0.2c0,0,0-0.1,0-0.1c0.1-0.1,0.2-0.1,0.3,0l8.4,4.7
				c0.7,0.4,1.4,0.9,2.1,1.4c0.6,0.5,1.1,1.1,1.5,1.7c0.4,0.6,0.6,1.3,0.7,2c0.1,0.7-0.1,1.4-0.5,2.2c-0.4,0.7-0.9,1.2-1.5,1.5
				c-0.6,0.3-1.2,0.4-1.9,0.4c-0.7,0-1.3-0.2-2-0.4c-0.7-0.2-1.3-0.5-1.8-0.8l0,0c0.7,0.4,1.3,0.8,1.9,1.3c0.6,0.5,1.1,1.1,1.5,1.7
				s0.6,1.3,0.6,2s-0.1,1.5-0.6,2.3l-1.3,2.4c-0.3,0.5-0.4,0.9-0.5,1.2c-0.1,0.3,0.1,0.6,0.4,0.8c0.1,0.1,0.3,0.1,0.5,0.2
				c0.2,0,0.3,0,0.5,0c0.1,0,0.2,0,0.2,0.1C143.6,45.5,143.6,45.6,143.6,45.6z M142.4,29.9c0.3-0.5,0.5-0.9,0.7-1.4
				c0.2-0.4,0.3-0.9,0.4-1.3c0.1-0.4,0.1-0.7-0.1-1c-0.1-0.3-0.3-0.6-0.7-0.8l-0.6-0.3c-0.2-0.1-0.3-0.1-0.3,0l-3.8,6.8
				c0,0.1,0,0.2,0.2,0.3l0.6,0.3c0.4,0.2,0.7,0.3,1,0.3c0.3,0,0.6-0.2,0.9-0.4c0.3-0.2,0.5-0.6,0.8-1
				C141.8,31,142.1,30.5,142.4,29.9z"/>
			<path fill="#FFFFFF" d="M155.8,57.1c-0.1,0.1-0.2,0.1-0.3,0.1l-12.3-11.1c-0.1-0.1-0.2-0.2-0.1-0.3c0,0,0.1,0,0.1-0.1
				c0.1,0,0.1,0,0.2,0.1l0.6,0.5c0.1,0.1,0.2,0.1,0.3,0.1c0.1,0,0.3-0.2,0.6-0.6l10.4-11.6c0.3-0.3,0.5-0.5,0.5-0.6s0-0.2-0.1-0.3
				l-0.6-0.5c-0.1-0.1-0.1-0.1-0.1-0.2c0,0,0-0.1,0-0.1c0.1-0.1,0.2-0.1,0.3,0l11.7,10.5c0.1,0.1,0.1,0.2,0,0.3l-4.4,4.9
				c-0.1,0.1-0.2,0.1-0.3,0.1c0,0-0.1-0.1-0.1-0.1c0,0,0-0.1,0.1-0.2l0.2-0.2c0.4-0.4,0.7-1,0.9-1.8c0.2-0.8,0.4-1.6,0.3-2.4
				c0-0.9-0.1-1.7-0.4-2.5s-0.7-1.5-1.4-2.1l-1-0.9c-0.1-0.1-0.2-0.2-0.3-0.1l-5.2,5.8c-0.1,0.1,0,0.2,0.1,0.3l0.1,0.1
				c0.4,0.3,0.8,0.6,1.3,0.8c0.5,0.2,1,0.3,1.5,0.3c0.5,0,1,0,1.4-0.2c0.5-0.1,0.8-0.4,1.1-0.7l0.1-0.1c0.1-0.1,0.1-0.1,0.2-0.1
				s0.1,0,0.1,0.1c0.1,0.1,0.1,0.2,0,0.3l-5,5.5c-0.1,0.1-0.2,0.2-0.3,0.1c0,0-0.1-0.1-0.1-0.1s0-0.1,0.1-0.2l0.1-0.1
				c0.3-0.3,0.5-0.7,0.5-1.2c0.1-0.5,0.1-1,0-1.5c-0.1-0.5-0.2-1-0.5-1.5c-0.2-0.5-0.5-0.9-0.9-1.2l-0.1-0.1
				c-0.1-0.1-0.2-0.2-0.3-0.1l-5.8,6.4c-0.1,0.1,0,0.2,0.1,0.3l0.8,0.8c0.6,0.6,1.3,1,2,1.3s1.4,0.4,2.1,0.5c0.7,0.1,1.3,0.1,2,0
				c0.6-0.1,1.2-0.2,1.7-0.4s1-0.4,1.3-0.6c0.4-0.2,0.6-0.4,0.8-0.6l0.2-0.2c0.1-0.1,0.1-0.1,0.2-0.1s0.1,0,0.1,0.1
				c0.1,0.1,0.1,0.2,0,0.3L155.8,57.1z"/>
		</g>
		<path fill="#FFFFFF" d="M121.5,3.5c-0.2,0.3-0.5,0.6-0.8,0.8c-0.4,0.2-0.7,0.3-1.1,0.4c-0.4,0.1-0.8,0.2-1.2,0.2
			c-0.4,0.1-0.8,0.1-1.1,0.2l-5.6,0.7c-0.1,0-0.2,0-0.3,0c-0.1,0-0.2,0-0.2-0.1c0-0.1,0-0.2,0.1-0.2c0.1-0.1,0.2-0.2,0.2-0.2
			l4.6-3.3c0.3-0.2,0.7-0.5,1.1-0.8c0.4-0.3,0.8-0.6,1.3-0.8c0.4-0.2,0.9-0.3,1.3-0.4c0.4,0,0.9,0.1,1.3,0.3c0.5,0.3,0.8,0.8,1,1.4
			C121.9,2.4,121.8,3,121.5,3.5z"/>
	</g>
</g>
</svg>
