<?xml version="1.0" encoding="utf-8"?>
<!-- Generator: Adobe Illustrator 18.1.1, SVG Export Plug-In . SVG Version: 6.00 Build 0)  -->
<!DOCTYPE svg PUBLIC "-//W3C//DTD SVG 1.1//EN" "http://www.w3.org/Graphics/SVG/1.1/DTD/svg11.dtd">
<svg version="1.1" xmlns="http://www.w3.org/2000/svg" xmlns:xlink="http://www.w3.org/1999/xlink" x="0px" y="0px"
	 viewBox="0 0 243.4 179" enable-background="new 0 0 243.4 179" xml:space="preserve">
<g id="Logo">
	<rect x="0.5" y="0.5" fill="#FFFFFF" width="242.4" height="178"/>
	<g>
		<path fill="#7FB439" d="M120.7,44.7c18.2,0,33.1,6.5,40.9,15.5c0.9-0.9,1.3-1.1,2.6-2C152.5,47,140,41.7,120.7,41.7
			c-19.5,0-36.7,8-46.9,20.3c1.3,0,2.6,0.1,3.8,0.6C87.3,51.7,102.9,44.7,120.7,44.7z"/>
		<path fill="#7FB439" d="M151.1,124.2c-7.5,4.6-20.5,8.1-30,8.1c-10.3,0-21.9-2.8-30.2-8.2l-6,0c9.5,6.6,21.6,10.9,36.2,10.9
			c13.1,0,25.8-4.3,35.8-10.7H151.1z"/>
		<path fill="#655651" d="M121.6,26.4c-42.4,0-76.8,27.9-76.8,62.3c0,34.4,34.4,62.3,76.8,62.3c42.4,0,76.8-27.9,76.8-62.3
			C198.4,54.3,164,26.4,121.6,26.4z M121.6,142.3c-36.8,0-66.6-24.2-66.6-54c0-29.8,29.8-54,66.6-54c36.8,0,66.6,24.2,66.6,54
			C188.2,118.1,158.4,142.3,121.6,142.3z"/>
		<path fill="#655651" d="M85.7,96.5c0,3.2-0.9,5.9-2.7,8.1c-2,2.3-4.6,3.1-7.9,2.9c-3.7-0.1-7.7-2.7-9.2-4.4v-1.7l0.2,0.1
			c1.2,0.8,3.9,1.7,4.8,2c0.7,0.2,2.8,0.4,4.3,0.3c2.4-0.1,3.8-0.6,5-2c1.2-1.3,1.8-3,1.8-5.1c0-2.9-0.9-5.5-2.6-7.8
			c-1.9-2.4-4.2-3.8-7-4.2v16c-0.5,0-1-0.1-1.4-0.2c-1-0.2-1.8-0.5-2.4-1.2v-32c1.7-0.6,3.3-0.9,4.9-0.9c2.4,0,4.5,0.8,6.3,2.3
			c1.8,1.5,2.7,3.5,2.7,5.8c0,3.9-2.4,6.7-7.1,8.4C82.3,85.5,85.7,90,85.7,96.5z M79.5,75.2c0-1.5-0.6-2.7-1.8-3.7
			c-1.4-1.1-3.1-1.7-5.2-1.5v12C77.1,80.3,79.5,78.1,79.5,75.2z"/>
		<path fill="#655651" d="M107.3,107.4l-1.4,1.5c-1.6-1.5-2.5-3.2-3-4.9c-0.7,1.4-1.6,2.6-2.8,3.5c-1.3,1-2.7,1.5-4.2,1.5
			c-1.9,0-3.4-0.7-4.6-2.1c-1.1-1.4-1.7-3-1.7-5c0-3.2,1.3-6.4,3.9-9.7c2.3-2.9,5-5.2,8.2-6.9c-1-2.3-2.5-4-4.4-5.2l1.4-1.5
			c0.6,0.3,1.4,0.7,2.3,1.4c2.4,1.7,3.9,3.9,4.6,6.6c0.4,1.6,0.6,4.4,0.6,8.2v9.1C106.5,105.4,106.8,106.5,107.3,107.4z M103,92.7
			c0-1.4-0.2-3.1-0.5-5.2c-2.3,1.5-4.3,3.6-6.1,6.2c-2,2.9-3,5.6-3,7.9c0,1.2,0.2,2.1,0.7,3c0.6,1,1.5,1.5,2.5,1.5
			c0.6,0,1.2-0.1,1.7-0.4C101.4,104,103,99.7,103,92.7z"/>
		<path fill="#655651" d="M122,79.9L122,79.9c-2.6,1.5-4.5,3.3-5.5,5.4c-0.9,1.9-1.4,4.4-1.4,7.6v15.5h-3.4V91.8
			c0-6.8,2.9-11.2,8.8-13.3L122,79.9z"/>
		<path fill="#655651" d="M142.9,107.9l-1.5,1.5c-1.1-0.9-1.9-2.4-2.4-4.5c-1.5,3-3.6,4.5-6.1,4.5c-4,0-6.1-2.6-6.1-7.7V79h3.5v22.8
			c0,3.1,0.9,4.7,2.8,4.7c0.6,0,1.1-0.1,1.6-0.3c2.6-1.3,3.8-4.9,3.8-10.8V79h3.4v23.7C142,105.3,142.3,107,142.9,107.9z"/>
		<path fill="#655651" d="M158,102.5c0,1.7-0.6,3.2-1.7,4.5c-1.1,1.2-2.6,1.9-4.3,1.9c-2.5,0-4.5-1-5.9-3l1.4-1.5
			c1,1.2,2.3,1.7,3.8,1.7c0.8,0,1.5-0.3,2.1-0.9c0.6-0.6,0.8-1.4,0.8-2.2c0-1.2-1-3.5-3-6.9c-2-3.4-3-6-3-7.7c0-3.5,1.8-6.4,5.4-8.9
			c0.9-0.6,1.5-0.9,1.9-0.9L157,80c-1.4,0.8-2.6,1.9-3.6,3.2c-1,1.5-1.6,3-1.6,4.5c0,1.3,0.3,2.5,1,3.7l3.6,6.3
			C157.5,99.6,158,101.2,158,102.5z"/>
		<path fill="#655651" d="M176.8,108.2h-3.7V86.3c0-3.2-0.9-4.7-2.8-4.7c-0.4,0-0.9,0.2-1.6,0.5c-2.5,1.3-3.8,4.8-3.8,10.6v15.5
			h-3.5V75.5c0-9.9,4.5-12.1,6.5-14.2l1.3,1.7c-1.6,1.3-4.4,5.2-4.4,11.5v8.2c1.6-2.6,3.5-3.9,5.7-3.9c4.2,0,6.3,2.6,6.3,7.7V108.2z
			"/>
		<g>
			<path fill="#655651" d="M77.1,113.8v-0.4c0.5,0,0.9,0,1.3,0c0.4,0,0.8,0,1.3,0v0.4c-0.3,0-0.5,0-0.6,0.1c-0.1,0-0.1,0.1-0.1,0.2
				c0,0.1,0.1,0.6,0.3,1.4l0.5,2.3l1.1-2.3c0.4-0.9,0.7-1.6,0.9-2h0.4l1.8,4.5l0.7-2.7c0.2-0.6,0.2-1,0.2-1.2c0-0.1,0-0.2-0.1-0.2
				c-0.1,0-0.3-0.1-0.6-0.1v-0.4c0.5,0,0.9,0,1,0c0.2,0,0.5,0,0.9,0v0.4c-0.2,0-0.4,0.1-0.5,0.1c-0.1,0.1-0.1,0.2-0.2,0.4
				c-0.1,0.3-0.4,1.2-0.8,2.7l-0.7,2.5h-0.8l-1.7-4.4l-1.1,2.4c-0.3,0.7-0.7,1.4-0.9,2H79c-0.1-0.4-0.3-1.4-0.7-3.3l-0.5-2
				c0-0.2-0.1-0.3-0.2-0.4C77.6,113.9,77.4,113.8,77.1,113.8z"/>
			<path fill="#655651" d="M90.8,119.6c-1.1,0-1.9-0.3-2.5-0.8c-0.6-0.5-0.9-1.3-0.9-2.3c0-0.7,0.1-1.2,0.4-1.7
				c0.3-0.5,0.7-0.8,1.1-1.1c0.5-0.3,1.1-0.4,1.9-0.4c0.7,0,1.3,0.1,1.8,0.4c0.5,0.2,0.8,0.6,1.1,1c0.3,0.4,0.4,1,0.4,1.6
				c0,0.7-0.1,1.3-0.4,1.8c-0.3,0.5-0.7,0.9-1.2,1.2C92.1,119.5,91.5,119.6,90.8,119.6z M90.9,119.2c0.6,0,1-0.2,1.4-0.6
				c0.3-0.4,0.5-1.1,0.5-2c0-0.9-0.2-1.6-0.6-2.1c-0.3-0.4-0.8-0.6-1.5-0.6c-0.6,0-1.1,0.2-1.5,0.6c-0.3,0.4-0.5,1.1-0.5,1.9
				c0,0.6,0.1,1.2,0.3,1.6c0.2,0.4,0.4,0.7,0.7,0.9C90.1,119.1,90.5,119.2,90.9,119.2z"/>
			<path fill="#655651" d="M99.1,119.6c-1.1,0-1.9-0.3-2.5-0.8c-0.6-0.5-0.9-1.3-0.9-2.3c0-0.7,0.1-1.2,0.4-1.7
				c0.3-0.5,0.7-0.8,1.1-1.1c0.5-0.3,1.1-0.4,1.9-0.4c0.7,0,1.3,0.1,1.8,0.4c0.5,0.2,0.8,0.6,1.1,1c0.3,0.4,0.4,1,0.4,1.6
				c0,0.7-0.1,1.3-0.4,1.8c-0.3,0.5-0.7,0.9-1.2,1.2C100.4,119.5,99.8,119.6,99.1,119.6z M99.3,119.2c0.6,0,1.1-0.2,1.4-0.6
				c0.3-0.4,0.5-1.1,0.5-2c0-0.9-0.2-1.6-0.6-2.1c-0.3-0.4-0.8-0.6-1.5-0.6c-0.6,0-1.1,0.2-1.5,0.6c-0.3,0.4-0.5,1.1-0.5,1.9
				c0,0.6,0.1,1.2,0.3,1.6c0.2,0.4,0.4,0.7,0.7,0.9C98.4,119.1,98.8,119.2,99.3,119.2z"/>
			<path fill="#655651" d="M104.4,119.5v-0.2c0.2-0.1,0.3-0.2,0.4-0.3c0-0.5,0.1-1.5,0.1-2.9c0-0.6,0-1.1,0-1.5c0-0.4,0-0.6-0.1-0.7
				c0,0,0-0.1-0.1-0.1c0,0-0.3-0.1-0.6-0.1v-0.4c0.4,0,0.9,0,1.5,0l2.1,0c0.8,0,1.4,0.1,1.8,0.3c0.4,0.2,0.7,0.5,1,0.9
				c0.2,0.4,0.4,0.9,0.4,1.5c0,0.7-0.2,1.4-0.6,1.9c-0.4,0.5-0.8,0.9-1.4,1.2c-0.5,0.2-1.1,0.3-1.7,0.3l-1.7,0
				C105.3,119.5,104.9,119.5,104.4,119.5z M106.1,119c0.2,0,0.5,0.1,0.7,0.1c0.6,0,1.1-0.1,1.5-0.3c0.3-0.2,0.6-0.5,0.8-0.9
				c0.2-0.4,0.3-0.9,0.3-1.6c0-0.8-0.2-1.4-0.6-1.9c-0.4-0.4-1-0.6-1.8-0.6c-0.2,0-0.5,0-0.9,0l0,2.7
				C106.1,117.8,106.1,118.6,106.1,119z"/>
			<path fill="#655651" d="M112,113.8v-0.4c0.5,0,0.9,0,1.3,0c0.4,0,0.8,0,1.3,0v0.4c-0.3,0-0.5,0-0.6,0.1c-0.1,0-0.1,0.1-0.1,0.2
				c0,0.1,0.1,0.6,0.3,1.4l0.5,2.3l1.1-2.3c0.4-0.9,0.7-1.6,0.9-2h0.4l1.8,4.5l0.7-2.7c0.2-0.6,0.2-1,0.2-1.2c0-0.1,0-0.2-0.1-0.2
				c-0.1,0-0.3-0.1-0.6-0.1v-0.4c0.5,0,0.9,0,1,0c0.2,0,0.5,0,0.9,0v0.4c-0.2,0-0.4,0.1-0.5,0.1c-0.1,0.1-0.1,0.2-0.2,0.4
				c-0.1,0.3-0.4,1.2-0.8,2.7l-0.7,2.5h-0.8l-1.7-4.4l-1.1,2.4c-0.3,0.7-0.7,1.4-0.9,2h-0.6c-0.1-0.4-0.3-1.4-0.7-3.3l-0.5-2
				c0-0.2-0.1-0.3-0.2-0.4C112.4,113.9,112.2,113.8,112,113.8z"/>
			<path fill="#655651" d="M125.6,119.6c-1.1,0-1.9-0.3-2.5-0.8c-0.6-0.5-0.9-1.3-0.9-2.3c0-0.7,0.1-1.2,0.4-1.7
				c0.3-0.5,0.7-0.8,1.1-1.1c0.5-0.3,1.1-0.4,1.9-0.4c0.7,0,1.3,0.1,1.8,0.4c0.5,0.2,0.8,0.6,1.1,1c0.3,0.4,0.4,1,0.4,1.6
				c0,0.7-0.1,1.3-0.4,1.8c-0.3,0.5-0.7,0.9-1.2,1.2C126.9,119.5,126.3,119.6,125.6,119.6z M125.7,119.2c0.6,0,1-0.2,1.4-0.6
				c0.3-0.4,0.5-1.1,0.5-2c0-0.9-0.2-1.6-0.6-2.1c-0.3-0.4-0.8-0.6-1.5-0.6c-0.6,0-1.1,0.2-1.5,0.6c-0.3,0.4-0.5,1.1-0.5,1.9
				c0,0.6,0.1,1.2,0.3,1.6c0.2,0.4,0.4,0.7,0.7,0.9C124.9,119.1,125.3,119.2,125.7,119.2z"/>
			<path fill="#655651" d="M130.6,119.5v-0.4c0.3,0,0.5-0.1,0.6-0.1c0,0,0.1,0,0.1-0.1c0-0.1,0-0.3,0.1-0.7c0-0.6,0-1.1,0-1.5
				c0-0.5,0-1.1,0-1.8c0-0.6,0-0.9-0.1-1c0,0,0-0.1-0.1-0.1c0,0-0.2-0.1-0.6-0.1v-0.4c0.6,0,1,0,1.2,0l2.2,0c0.5,0,0.8,0,1,0.1
				c0.2,0.1,0.4,0.2,0.5,0.4c0.1,0.2,0.2,0.4,0.2,0.7c0,0.3-0.1,0.7-0.3,0.9c-0.2,0.3-0.6,0.5-1.1,0.7l0.9,1.4l0.7,1.1
				c0.1,0.2,0.2,0.3,0.3,0.3c0.1,0,0.2,0.1,0.3,0.1v0.3l-0.3,0c-0.7,0-1.2,0-1.4,0c-0.3-0.4-0.6-1-1.1-1.8l-0.9-1.4
				c0,0,0-0.1,0.1-0.2c0.1,0,0.2,0,0.3,0c0.3,0,0.5-0.1,0.8-0.3c0.3-0.2,0.4-0.5,0.4-0.9c0-0.4-0.1-0.6-0.3-0.8
				c-0.2-0.2-0.5-0.3-0.9-0.3c-0.1,0-0.3,0-0.5,0l0,1.3l0,1.6c0,0.4,0,0.8,0,1.4c0,0.4,0,0.7,0.1,0.7c0,0,0,0.1,0.1,0.1
				c0.1,0,0.3,0.1,0.6,0.1v0.4c-0.5,0-1,0-1.4,0C131.5,119.5,131.1,119.5,130.6,119.5z"/>
			<path fill="#655651" d="M137.9,119.5v-0.4c0.4,0,0.6,0,0.6-0.1c0,0,0.1,0,0.1-0.1c0,0,0.1-0.1,0.1-0.3c0-0.2,0-0.7,0.1-1.3l0-1.6
				c0-0.5,0-1,0-1.3c0-0.4,0-0.6-0.1-0.6c0,0,0-0.1-0.1-0.1c-0.1,0-0.3-0.1-0.6-0.1v-0.4c0.5,0,1,0,1.4,0c0.5,0,1,0,1.4,0v0.4
				c-0.4,0-0.6,0.1-0.6,0.1c-0.1,0-0.1,0.1-0.1,0.3c0,0.2,0,0.9,0,2.2h0.1c0.3-0.2,0.7-0.6,1.3-1.2c0.6-0.6,1-1,1.3-1.4l0-0.2l0-0.2
				l0,0c0.3,0,0.6,0,0.8,0c0.2,0,0.5,0,0.8,0v0.4l-0.2,0c-0.2,0-0.3,0-0.4,0.1c-0.1,0.1-0.3,0.2-0.5,0.3c-0.3,0.2-0.7,0.6-1.1,1
				l-0.8,0.7l0.4,0.5c0.5,0.6,1,1.2,1.7,2c0.4,0.4,0.6,0.7,0.7,0.7c0.1,0,0.2,0.1,0.4,0.1v0.4l-0.2,0l-0.8,0c-0.2,0-0.5,0-0.8,0
				c-0.2-0.3-0.6-0.8-1.2-1.5c-0.4-0.5-0.8-1-1.2-1.4c0-0.1-0.1-0.1-0.1-0.1c0,0,0,0-0.1,0c0,0-0.1,0-0.1,0.1c0,0,0,0.1,0,0.3l0,1.3
				c0,0.4,0,0.6,0,0.7c0,0,0,0.1,0.1,0.1c0.1,0,0.3,0,0.6,0.1v0.4c-0.4,0-0.9,0-1.4,0C139,119.5,138.5,119.5,137.9,119.5z"/>
			<path fill="#655651" d="M145.7,119.5v-0.4c0.4,0,0.6-0.1,0.7-0.1c0.1,0,0.1-0.2,0.1-0.3c0-0.4,0-1.1,0-2.1c0-0.4,0-1,0-1.7
				c0-0.5,0-0.8,0-0.9c0-0.1,0-0.1-0.1-0.1c-0.1,0-0.3-0.1-0.7-0.1v-0.4c0.6,0,1.1,0,1.4,0c0.5,0,1,0,1.5,0v0.4
				c-0.4,0-0.6,0.1-0.7,0.1c-0.1,0-0.1,0.1-0.1,0.3c0,0.3,0,0.8,0,1.7c0,1.1,0,1.9,0,2.4c0,0.4,0,0.7,0.1,0.8c0,0,0.1,0.1,0.1,0.1
				c0.1,0,0.3,0,0.6,0.1v0.4l-0.5,0c-0.3,0-0.6,0-0.9,0L145.7,119.5z"/>
			<path fill="#655651" d="M150.1,119.5v-0.4c0.4,0,0.6,0,0.6-0.1c0,0,0.1-0.1,0.1-0.1c0-0.1,0.1-0.3,0.1-0.7c0-0.7,0-1.2,0-1.6
				l0-1.8c0-0.5,0-0.8,0-0.8c0,0,0-0.1-0.1-0.1c-0.1,0-0.3-0.1-0.7-0.1v-0.4c0.5,0,0.8,0,1,0c0.2,0,0.5,0,0.8,0
				c0.7,0.9,1.4,1.8,2.3,2.8c0.6,0.7,1,1.2,1.5,1.7v-1.7c0-0.7,0-1.2,0-1.7c0-0.3,0-0.5-0.1-0.5c0,0,0-0.1-0.1-0.1
				c0,0-0.2,0-0.6-0.1v-0.4c0.3,0,0.6,0,0.9,0c0.4,0,0.8,0,1.2,0v0.4c-0.3,0-0.5,0-0.6,0.1c0,0-0.1,0-0.1,0.1c0,0,0,0.1-0.1,0.1
				c0,0.1,0,0.3,0,0.7l0,1.7l0,1.8c0,0.5,0,0.9,0,1.4l-0.1,0.1c-0.4-0.1-0.6-0.1-0.7-0.1c-0.7-0.8-1.6-1.9-2.7-3.1
				c-0.5-0.6-1-1.2-1.3-1.6v1.7c0,0.5,0,1,0,1.7c0,0.5,0,0.8,0.1,0.8c0,0,0,0.1,0.1,0.1c0.1,0,0.3,0.1,0.6,0.1v0.4c-0.5,0-0.8,0-1,0
				C151,119.5,150.6,119.5,150.1,119.5z"/>
			<path fill="#655651" d="M162.5,117.4v-0.4c0.5,0,1,0,1.4,0c0.4,0,0.8,0,1.2,0v0.3c-0.1,0-0.2,0.1-0.4,0.1c0,0.3-0.1,0.5-0.1,0.7
				c0,0.1,0,0.4,0.1,0.9c-0.6,0.2-1.1,0.3-1.4,0.4c-0.4,0.1-0.8,0.1-1.2,0.1c-1.1,0-2-0.3-2.6-0.9c-0.6-0.6-1-1.3-1-2.3
				c0-1,0.3-1.7,1-2.3c0.6-0.6,1.6-0.9,2.8-0.9c0.4,0,0.8,0,1.2,0.1c0.4,0.1,0.8,0.2,1.1,0.3l0,0.1c-0.1,0.4-0.1,0.8-0.2,1.4h-0.4
				c0-0.3,0-0.5-0.1-0.7c-0.2-0.2-0.4-0.4-0.7-0.5c-0.3-0.1-0.6-0.2-1-0.2c-0.7,0-1.3,0.2-1.8,0.7c-0.4,0.5-0.7,1.1-0.7,1.9
				c0,0.8,0.2,1.5,0.7,2c0.5,0.5,1,0.8,1.7,0.8c0.4,0,0.8-0.1,1.2-0.3c0-0.2,0-0.4,0-0.6c0-0.4,0-0.7-0.1-0.7
				C163.4,117.5,163,117.4,162.5,117.4z"/>
		</g>
		<g>
			<path fill="#655651" d="M94.4,64.7v-0.1c0.1,0,0.2-0.1,0.3-0.1c0-0.3,0.1-0.9,0.1-1.8c0-0.6,0-1,0-1.2c0-0.1,0-0.2-0.1-0.2
				c0,0-0.2-0.1-0.4-0.1v-0.2c0.4,0,0.8,0,1,0l1.5,0c0.2,0,0.3,0,0.4,0l0,0c0,0.2-0.1,0.5-0.1,0.8h-0.2c0-0.3,0-0.4,0-0.4
				c0,0-0.1,0-0.1-0.1c-0.1,0-0.4,0-0.7,0c-0.1,0-0.3,0-0.5,0c0,0.6,0,1,0,1.3c0.2,0,0.4,0,0.5,0c0.2,0,0.4,0,0.4,0
				c0,0,0.1,0,0.1-0.1c0,0,0-0.1,0-0.3h0.2c0,0.3,0,0.5,0,0.6l0,0.6h-0.2c0-0.2,0-0.4,0-0.4c0,0,0,0-0.1,0c-0.1,0-0.3,0-0.6,0
				c-0.1,0-0.2,0-0.3,0c0,0.1,0,0.2,0,0.3c0,0.5,0,0.9,0,1.2l0.5,0c0.3,0,0.6,0,0.8,0c0-0.2,0.1-0.4,0.1-0.6h0.2
				c0,0.3-0.1,0.6-0.1,0.9c-0.2,0-0.3,0-0.5,0c-0.1,0-0.3,0-0.6,0c-0.3,0-0.5,0-0.7,0C95.1,64.7,94.8,64.7,94.4,64.7z"/>
			<path fill="#655651" d="M98.3,63.5h0.2c0,0.3,0,0.4,0,0.5c0,0,0.1,0.1,0.2,0.2c0.1,0.1,0.2,0.1,0.3,0.2c0.1,0,0.3,0.1,0.4,0.1
				c0.3,0,0.5-0.1,0.6-0.2c0.2-0.1,0.2-0.3,0.2-0.5c0-0.2-0.1-0.3-0.2-0.4c-0.1-0.1-0.3-0.2-0.6-0.2c-0.4-0.1-0.7-0.1-0.9-0.2
				c-0.1-0.1-0.3-0.2-0.3-0.3c-0.1-0.1-0.1-0.3-0.1-0.5c0-0.3,0.1-0.6,0.4-0.9c0.2-0.2,0.6-0.3,1.1-0.3c0.2,0,0.4,0,0.5,0
				c0.2,0,0.3,0.1,0.5,0.1l0,0.1c0,0.1,0,0.2-0.1,0.3c0,0.1,0,0.2,0,0.5h-0.2c0-0.3,0-0.4,0-0.5c0-0.1-0.1-0.1-0.3-0.2
				c-0.1-0.1-0.3-0.1-0.5-0.1c-0.2,0-0.4,0.1-0.6,0.2C99,61.5,99,61.6,99,61.8c0,0.1,0,0.2,0.1,0.3c0.1,0.1,0.1,0.1,0.2,0.2
				c0.1,0,0.3,0.1,0.6,0.1c0.3,0,0.5,0.1,0.6,0.1c0.2,0.1,0.3,0.2,0.4,0.3c0.1,0.1,0.1,0.3,0.1,0.5c0,0.4-0.1,0.7-0.4,0.9
				c-0.3,0.2-0.7,0.4-1.2,0.4c-0.2,0-0.4,0-0.6-0.1c-0.2,0-0.4-0.1-0.6-0.2c0-0.1,0.1-0.2,0.1-0.3C98.3,64,98.3,63.8,98.3,63.5z"/>
			<path fill="#655651" d="M102.8,64.7v-0.2c0.1,0,0.2,0,0.3,0c0.1,0,0.1,0,0.1,0c0,0,0-0.1,0-0.1c0-0.1,0-0.4,0-0.8
				c0-0.3,0-0.7,0-1.1c0-0.7,0-1.1,0-1.1c0,0-0.1,0-0.2,0c-0.2,0-0.5,0-0.6,0c-0.1,0-0.2,0-0.2,0c0,0,0,0,0,0c0,0,0,0.2,0,0.5H102
				c0-0.3,0-0.6,0-0.9l0,0c0.6,0,1.1,0,1.6,0c0.5,0,1.1,0,1.8,0l0,0c0,0.2-0.1,0.5-0.1,0.9h-0.2c0-0.3,0-0.5,0-0.5c0,0,0,0-0.1,0
				c-0.1,0-0.4,0-0.8,0c0,0-0.1,0-0.1,0c0,0,0,0.1,0,0.1l0,1.8c0,0.5,0,0.8,0,1c0,0.1,0,0.2,0.1,0.2c0,0,0.2,0,0.4,0.1v0.2
				c-0.3,0-0.5,0-0.8,0C103.3,64.7,103,64.7,102.8,64.7z"/>
			<path fill="#655651" d="M106.7,63.9c0.1,0,0.2,0,0.3,0.1c0.1,0.1,0.1,0.2,0.1,0.3c0,0.1,0,0.2-0.1,0.3c-0.1,0.1-0.2,0.1-0.3,0.1
				c-0.1,0-0.2,0-0.3-0.1c-0.1-0.1-0.1-0.2-0.1-0.3c0-0.1,0-0.2,0.1-0.3C106.5,63.9,106.6,63.9,106.7,63.9z"/>
			<path fill="#655651" d="M135.1,64.7L135.1,64.7l0-0.2l0,0c0.3,0,0.5-0.1,0.6-0.1c0,0,0.1,0,0.1-0.1c0,0,0-0.2,0-0.5
				c0-0.5,0-1,0-1.4c0-0.5,0-0.8,0-0.9c0,0,0,0-0.1,0c0,0,0,0-0.1,0l-0.7,0.3l0,0c0-0.1,0-0.2-0.1-0.3l0,0c0.7-0.2,1.2-0.4,1.7-0.6
				l0.1,0c0,0.2,0,0.6-0.1,1c0,0.4,0,0.9,0,1.6c0,0.4,0,0.7,0,0.8c0,0,0,0.1,0.1,0.1c0,0,0.2,0,0.5,0.1l0,0v0.2l0,0l-0.3,0
				c-0.3,0-0.6,0-0.7,0C135.8,64.7,135.5,64.7,135.1,64.7z"/>
			<path fill="#655651" d="M139.9,62.8c-0.2,0.2-0.3,0.3-0.4,0.4c-0.1,0.1-0.2,0.1-0.4,0.1c-0.3,0-0.5-0.1-0.6-0.3
				c-0.2-0.2-0.2-0.4-0.2-0.8c0-0.4,0.1-0.7,0.3-1c0.2-0.2,0.5-0.4,0.9-0.4c0.2,0,0.5,0.1,0.6,0.2c0.2,0.1,0.3,0.3,0.4,0.5
				c0.1,0.2,0.1,0.5,0.1,0.9c0,0.5-0.1,0.9-0.2,1.2c-0.2,0.3-0.4,0.6-0.7,0.8c-0.3,0.2-0.7,0.3-1.1,0.3l-0.2-0.2l0.1-0.1
				c0.1,0,0.2,0,0.2,0c0.2,0,0.4-0.1,0.6-0.2c0.2-0.1,0.3-0.3,0.4-0.5C139.8,63.6,139.9,63.2,139.9,62.8z M139.4,62.8
				c0.1,0,0.3-0.1,0.4-0.1c0.1-0.1,0.1-0.3,0.1-0.5c0-0.4-0.1-0.6-0.2-0.8c-0.1-0.2-0.2-0.2-0.4-0.2c-0.1,0-0.3,0.1-0.4,0.2
				c-0.1,0.1-0.1,0.3-0.1,0.6c0,0.3,0.1,0.5,0.2,0.7C139.1,62.7,139.3,62.8,139.4,62.8z"/>
			<path fill="#655651" d="M142.1,62.8c-0.2-0.1-0.3-0.2-0.4-0.4c-0.1-0.1-0.1-0.3-0.1-0.5c0-0.3,0.1-0.6,0.3-0.8
				c0.2-0.2,0.5-0.3,0.9-0.3c0.3,0,0.6,0.1,0.7,0.2c0.2,0.1,0.2,0.4,0.2,0.6c0,0.2,0,0.3-0.1,0.4c-0.1,0.1-0.2,0.2-0.4,0.4
				c0.2,0.1,0.4,0.2,0.5,0.3c0.1,0.2,0.2,0.4,0.2,0.6c0,0.4-0.1,0.7-0.4,0.9c-0.2,0.2-0.6,0.4-0.9,0.4c-0.3,0-0.6-0.1-0.8-0.3
				c-0.2-0.2-0.3-0.4-0.3-0.7c0-0.2,0-0.4,0.1-0.5C141.7,63,141.9,62.9,142.1,62.8z M142.4,62.9c-0.1,0.1-0.2,0.2-0.3,0.4
				c-0.1,0.1-0.1,0.3-0.1,0.4c0,0.2,0.1,0.4,0.2,0.5c0.1,0.1,0.3,0.2,0.5,0.2c0.2,0,0.3-0.1,0.4-0.2c0.1-0.1,0.2-0.3,0.2-0.5
				c0-0.1,0-0.2-0.1-0.3c0-0.1-0.1-0.2-0.2-0.2C142.9,63.2,142.7,63.1,142.4,62.9z M142.9,62.4c0.1-0.1,0.2-0.2,0.3-0.3
				c0.1-0.1,0.1-0.2,0.1-0.3c0-0.2-0.1-0.3-0.2-0.4c-0.1-0.1-0.2-0.2-0.4-0.2c-0.2,0-0.3,0-0.4,0.1c-0.1,0.1-0.1,0.2-0.1,0.4
				c0,0.1,0,0.3,0.1,0.4C142.4,62.1,142.6,62.3,142.9,62.4z"/>
			<path fill="#655651" d="M146,63.7c-0.5,0-1,0-1.4,0l0-0.1l0-0.2c0.2-0.4,0.4-0.8,0.6-1.3c0.3-0.5,0.5-0.9,0.8-1.2
				c0.2,0,0.4-0.1,0.7-0.1l0.1,0.1c0,0.3,0,0.5,0,0.8l0,1.5c0.2,0,0.4,0,0.5,0l0,0l0,0.1l0,0.2l0,0.2l0,0c-0.2,0-0.3,0-0.5,0l0,0.1
				c0,0.3,0,0.5,0,0.5c0,0,0.2,0.1,0.5,0.1l0,0v0.2l0,0c-0.3,0-0.6,0-0.9,0c-0.1,0-0.3,0-0.4,0l-0.6,0l0,0v-0.2l0,0
				c0.3,0,0.5,0,0.5,0c0.1,0,0.1,0,0.1-0.1C146,64.2,146,64,146,63.7z M146,63.3l0-1.8c-0.1,0.1-0.3,0.4-0.5,0.8
				c-0.2,0.4-0.4,0.7-0.5,1c0.2,0,0.3,0,0.5,0L146,63.3z"/>
		</g>
		<g>
			<path fill="#7FB439" d="M129,70.7c0.2-0.2,0.5-1.2,0.7-1.7c0.2-0.4,0.8-0.8-0.1-1.3c-2.8-1.4-10.8-10.6-10.8-10.6
				c1-0.8,2-1.7,2.9-2.3c0.6-0.4,0.3-0.3,0.2-0.5c-0.1-0.3-1.8-2.1-2.1-2.2c-0.3-0.1-0.5,0.2-0.6,0.5c-0.2,0.4-1,1.4-1.8,2.4
				l-0.3-0.3l-0.5,0.5l-0.4-0.3c0,0-0.9,0.5-1.1,1.2l0.3,0.5l-0.5,0.5l0.2,0.3l0,0c-0.5,0.4-1.3,1.2-2.7,1.6
				c-0.4,0.3-0.1,0.5,0.2,0.8c0.3,0.3,1.6,1.5,1.6,1.5s0.3,0.4,0.7,0.3c0.2-0.2,0.1-0.3,0.8-1c0,0,0.8-0.9,1.9-1.9
				c1.2,1.1,9.4,9.8,10.1,11.4C128.3,71.3,128.7,70.9,129,70.7z M115.5,59.7c-0.6,0.6-0.6,0.7-0.8,0.9c-0.1,0.2-0.6-0.4-0.6-0.4
				s-0.4-0.3-0.7-0.6c-0.2-0.2-0.6-0.5-0.2-0.8c1.5-0.4,2.4-1.6,3.5-2.6c1.1-1,2.6-2.9,2.7-3.1c0.1-0.2,0.2-0.5,0.5-0.4
				c0.3,0.1,1.2,1.2,1.4,1.4c0.1,0.2,0.3,0.1-0.2,0.5C118.9,56.1,115.5,59.7,115.5,59.7z"/>
			<path fill="#7FB439" d="M117.8,70.5c1.6-2.4,4.5-6.2,4.5-6.2s0,0,0-0.1c2.8-3.8,4.1-3.7,4.1-3.7l5.5-5.9l-1.9-1.6l-5.5,5.9
				c-0.8,2.3-3.4,4.4-3.4,4.4l-5.6,4.6c-0.9,0.8-1.2,2.2-0.4,2.9C115.7,71.4,117.1,71.4,117.8,70.5z M126.2,60.2
				c-0.4-0.7-1.1-1.1-1.5-1.2h0l5.2-5l0.9,0.7L126.2,60.2z"/>
		</g>
	</g>
</g>
</svg>
