<?xml version="1.0" encoding="utf-8"?>
<!-- Generator: Adobe Illustrator 18.1.1, SVG Export Plug-In . SVG Version: 6.00 Build 0)  -->
<!DOCTYPE svg PUBLIC "-//W3C//DTD SVG 1.1//EN" "http://www.w3.org/Graphics/SVG/1.1/DTD/svg11.dtd">
<svg version="1.1" id="Layer_1" xmlns="http://www.w3.org/2000/svg" xmlns:xlink="http://www.w3.org/1999/xlink" x="0px" y="0px"
	 viewBox="0 0 210.4 47.9" enable-background="new 0 0 210.4 47.9" xml:space="preserve">
<g>
	<path fill="#FFFFFF" d="M139.4,21h-9c-0.2,0-0.3,0.1-0.4,0.3l-2.2,5.8c-0.4,1-0.6,2-0.6,2.5c0,0.7,0.4,1.3,1.6,1.3h0.6
		c0.5,0,0.6,0.1,0.6,0.3c0,0.3-0.2,0.4-0.7,0.4c-1.3,0-3-0.1-4.3-0.1c-0.4,0-2.7,0.1-4.8,0.1c-0.3,0-0.5,0-0.6-0.1
		c-0.2,0.1-0.3,0.1-0.6,0.1H98.1c-0.4,0-0.7-0.2-0.7-0.5c0-0.3,0.1-0.5,0.6-1.2c5.5-8.6,11.5-18.7,16.7-26.9h-7.7
		c-2,0-4.4,0.1-5.6,0.8c-1.3,0.7-2,2.1-2.1,3c-0.1,0.5-0.2,0.7-0.5,0.7c-0.3,0-0.3-0.2-0.3-0.7c0-0.9,0.6-4.4,0.8-5.6
		c0.1-0.5,0.2-0.7,0.5-0.7c0.3,0,0.6,0.2,1.6,0.3c3.7,0.2,5.6,0.1,7.2,0.1h12c0.4,0,0.7,0.1,0.7,0.3c0,0.2-0.2,0.5-0.3,0.7
		c-5.4,8.7-11.4,18.8-16.9,27.2h9.5c4,0,5.5-1,6.1-2.2c0.4-0.6,0.6-1.3,0.7-1.9c0.1-0.4,0.2-0.6,0.4-0.6c0.3,0,0.4,0.3,0.4,1.2
		c0,1.3-0.5,3.8-0.8,4.8c0.3,0.3,0.7,0.2,1,0.2c1.9-0.2,2.6-1.6,3.4-3.6l10.1-25.4c0.5-1.2,0.7-1.6,1.1-1.6c0.4,0,0.6,0.4,1,1.3
		c1,2.2,7.4,18.7,10,24.8c1.5,3.6,2.7,4.2,3.6,4.4c0.6,0.1,1.2,0.2,1.7,0.2c0.3,0,0.5,0,0.5,0.3c0,0.3-0.4,0.4-1.9,0.4
		c-1.5,0-4.4,0-7.6-0.1c-0.7,0-1.2,0-1.2-0.3c0-0.2,0.2-0.3,0.6-0.4c0.3-0.1,0.6-0.4,0.4-0.9l-3.2-8.6C139.7,21,139.6,21,139.4,21
		 M131.2,18.9h7.4l-3.4-10.2c0-0.2-0.1-0.4-0.2-0.4c-0.1,0-0.2,0.2-0.2,0.4l-3.7,9.9L131.2,18.9z"/>
	<path fill="#FFFFFF" d="M48.1,32C37,32,32.2,24,31.9,17c-0.6,0-0.9,0.1-1.4,0.2C29.4,17.3,29,18,29,19.4c0,1.2,0,2.8,0,4.8v4.4
		c0,1.1,0,1.2-0.5,1.5c-2.6,1.4-6.6,1.8-9.7,1.8C8.8,32,0,27.3,0,16.2c0-6.5,3.4-11,7-13.2c3.9-2.3,7.5-2.6,10.9-2.6
		c2.8,0,6.3,0.5,7.2,0.6c0.9,0.2,2.3,0.4,3.2,0.4c0.5,0,0.6,0.2,0.6,0.5c0,0.4-0.3,1.6-0.3,6.6c0,0.7-0.1,0.8-0.4,0.8
		c-0.3,0-0.4-0.2-0.4-0.5c-0.1-0.9-0.3-2.2-1.4-3.4c-1.2-1.3-4.4-3.1-9-3.1c-2.2,0-5.2,0.2-8,2.5C7,6.7,5.6,9.8,5.6,14.7
		c0,8.7,5.5,15.2,14.1,15.2c1.1,0,2.5,0,3.4-0.4c0.6-0.3,0.8-0.8,0.8-1.5v-3.8c0-2,0-3.6,0-4.8c0-1.4-0.4-2-1.7-2.3
		c-0.3-0.1-1-0.1-1.6-0.1c-0.4,0-0.6-0.1-0.6-0.3c0-0.3,0.3-0.4,0.9-0.4c2.1,0,4.6,0.1,5.9,0.1c1.3,0,3.4-0.1,4.7-0.1
		c0.2,0,0.4,0,0.5,0.1c0-7.1,4.5-16,16.6-16c10,0,16.3,5.9,16.3,15.1S58.3,32,48.1,32 M49.8,30c2.8,0,9.3-1.4,9.3-13
		c0-9.1-5.2-14.7-11.8-14.7c-4.6,0-9.9,2.6-9.9,12.6C37.4,23.3,42,30,49.8,30"/>
	<path fill="#FFFFFF" d="M176.7,24.3c0-2,0-3.6,0-4.8c0-1.4,0.4-2.1,1.5-2.3c0.5-0.1,0.8-0.1,1.1-0.1c0.3,0,0.5-0.1,0.5-0.3
		c0-0.3-0.3-0.4-0.8-0.4c-1.3,0-3.5,0.1-4.7,0.1c-1.2,0-3.8-0.1-5.9-0.1c-0.6,0-0.8,0.1-0.8,0.4c0,0.2,0.2,0.3,0.6,0.3
		c0.6,0,1.3,0,1.6,0.1c1.3,0.3,1.7,0.9,1.7,2.3c0,1.2,0,2.7,0,4.8V28c0,0.7-0.2,1.2-0.8,1.5c-1,0.4-2.4,0.4-3.4,0.4
		c-8.5,0-14.1-6.5-14.1-15.2c0-5,1.5-8,3.7-9.9c2.8-2.3,5.8-2.5,8-2.5c4.6,0,7.8,1.9,9,3.1c1.1,1.1,1.3,2.4,1.4,3.4
		c0,0.3,0.1,0.5,0.4,0.5c0.3,0,0.4-0.2,0.4-0.8c0-5.1,0.3-6.2,0.3-6.6c0-0.3-0.1-0.4-0.6-0.5c-0.9,0-2.3-0.3-3.2-0.4
		c-0.8-0.2-4.4-0.6-7.1-0.6c-3.4,0-7,0.3-10.9,2.6c-3.7,2.2-7,6.7-7,13.2c0,11.2,8.8,15.8,18.7,15.8c3.1,0,7.1-0.5,9.7-1.8
		c0.5-0.3,0.5-0.4,0.5-1.5V24.3z M197,20.9c0.2,0,0.3,0.1,0.4,0.3l3.2,8.6c0.2,0.5-0.1,0.9-0.4,0.9c-0.4,0-0.6,0.1-0.6,0.4
		c0,0.3,0.5,0.3,1.2,0.3c3.2,0.1,6.2,0.1,7.6,0.1c1.5,0,1.9-0.1,1.9-0.4c0-0.3-0.2-0.3-0.5-0.3c-0.5,0-1.1,0-1.7-0.2
		c-0.8-0.2-2-0.8-3.6-4.4c-2.6-6.1-9-22.6-10-24.9c-0.4-0.9-0.7-1.3-1-1.3c-0.4,0-0.6,0.4-1.1,1.6L182.3,27c-0.8,2-1.6,3.4-3.4,3.6
		c-0.3,0-0.9,0.1-1.3,0.1c-0.3,0-0.5,0.1-0.5,0.3c0,0.3,0.2,0.4,0.8,0.4c2.1,0,4.3-0.1,4.8-0.1c1.3,0,3,0.1,4.3,0.1
		c0.4,0,0.7-0.1,0.7-0.4c0-0.2-0.1-0.3-0.6-0.3h-0.6c-1.2,0-1.6-0.5-1.6-1.3c0-0.5,0.2-1.5,0.6-2.5l2.2-5.8c0.1-0.2,0.2-0.3,0.4-0.3
		H197z M188.8,18.9c-0.2,0-0.2-0.1-0.2-0.3l3.7-9.9c0-0.2,0.1-0.4,0.2-0.4c0.1,0,0.2,0.2,0.2,0.4l3.6,10c0,0.1,0,0.2-0.2,0.2H188.8z
		 M69.9,9H70c0.7,0.8,5.2,5.8,9.6,10.2c4.2,4.2,9.4,9.5,11.9,11.9c0.4,0.4,0.9,0.9,1.4,0.9c0.4,0,0.5-0.4,0.5-1.3l0.4-25.5
		c0-2.3,0.4-3.1,1.5-3.4c0.5-0.1,0.8-0.1,1.2-0.1c0.5,0,0.7-0.1,0.7-0.4c0-0.3-0.4-0.4-0.9-0.4c-2,0-3.5,0.1-4,0.1
		c-0.8,0-2.8-0.1-4.9-0.1c-0.6,0-1,0-1,0.4c0,0.2,0.2,0.4,0.6,0.4c0.6,0,1.5,0,2.1,0.2c1,0.4,1.3,1.2,1.4,3.6l0.4,18.1h-0.2
		c-0.7-0.6-6.1-6.5-8.9-9.2c-5.9-5.9-12-12.4-12.5-13c-0.7-0.7-1-1.3-1.5-1.3c-0.4,0-0.5,0.6-0.5,1.4l-0.4,23.9c0,3.5-0.2,4.7-1.3,5
		c-0.6,0.2-1.3,0.2-1.8,0.2c-0.4,0-0.6,0.1-0.6,0.3c0,0.4,0.4,0.4,0.9,0.4c2.1,0,4-0.1,4.4-0.1c0.8,0,2.4,0.1,5,0.1
		c0.6,0,0.9-0.1,0.9-0.4c0-0.2-0.2-0.3-0.7-0.3c-0.6,0-1.4,0-2.1-0.3c-0.8-0.3-1.3-1.3-1.4-4.5L69.9,9z"/>
	<path fill="#FFFFFF" d="M15.1,43.4c0,1.9,0.5,2.9,1.2,3.6c1,0.9,2.3,0.9,3,0.9c0.9,0,1.8-0.1,2.8-1c1.1-1,1.3-2.6,1.3-4v-1.4
		c0-2,0-2.4,0-2.8c0-0.5,0.1-0.7,0.5-0.8c0.2,0,0.2,0,0.4,0c0.2,0,0.2,0,0.2-0.1c0-0.1-0.1-0.1-0.3-0.1c-0.5,0-1.4,0-1.5,0
		c0,0-0.9,0-1.5,0c-0.2,0-0.3,0-0.3,0.1c0,0.1,0.1,0.1,0.2,0.1c0.1,0,0.4,0,0.5,0c0.4,0.1,0.6,0.3,0.6,0.8c0,0.4,0,0.8,0,2.8v1.7
		c0,1.4,0,2.6-0.8,3.3c-0.5,0.5-1.3,0.7-1.8,0.7c-0.5,0-1.1-0.1-1.7-0.6c-0.7-0.5-1-1.4-1-3.3v-1.9c0-2,0-2.4,0-2.8
		c0-0.5,0.1-0.7,0.5-0.8c0.2,0,0.2,0,0.4,0c0.1,0,0.2,0,0.2-0.1c0-0.1-0.1-0.1-0.3-0.1c-0.5,0-1.3,0-1.6,0c-0.4,0-1.2,0-2,0
		c-0.2,0-0.3,0-0.3,0.1c0,0.1,0.1,0.1,0.2,0.1c0.2,0,0.4,0,0.5,0c0.4,0.1,0.5,0.3,0.6,0.8c0,0.4,0,0.8,0,2.8V43.4z M37.5,40.3
		c0.3,0.3,1.8,1.9,3.2,3.4c1.4,1.4,3.1,3.1,4,3.9c0.1,0.1,0.3,0.3,0.5,0.3c0.1,0,0.2-0.1,0.2-0.4l0.1-8.5c0-0.7,0.1-1,0.5-1.1
		c0.2,0,0.3,0,0.4,0c0.2,0,0.2,0,0.2-0.1c0-0.1-0.1-0.1-0.3-0.1c-0.7,0-1.2,0-1.3,0c-0.3,0-0.9,0-1.6,0c-0.2,0-0.4,0-0.4,0.1
		c0,0.1,0.1,0.1,0.2,0.1c0.2,0,0.5,0,0.7,0.1c0.3,0.1,0.4,0.4,0.5,1.2l0.1,6c-0.3-0.2-2.1-2.1-3-3.1c-2-1.9-4-4.1-4.2-4.3
		c-0.2-0.2-0.3-0.4-0.5-0.4c-0.1,0-0.2,0.2-0.2,0.5l-0.1,7.9c0,1.2-0.1,1.6-0.4,1.7c-0.2,0.1-0.4,0.1-0.6,0.1c-0.1,0-0.2,0-0.2,0.1
		c0,0.1,0.1,0.1,0.3,0.1c0.7,0,1.3,0,1.4,0c0.3,0,0.8,0,1.7,0c0.2,0,0.3,0,0.3-0.1c0-0.1-0.1-0.1-0.2-0.1c-0.2,0-0.5,0-0.7-0.1
		c-0.3-0.1-0.4-0.4-0.5-1.5L37.5,40.3z M59.7,43.8c0,1.3,0,2.4-0.1,2.9c0,0.4-0.1,0.6-0.4,0.7c-0.1,0-0.3,0-0.5,0
		c-0.2,0-0.2,0-0.2,0.1c0,0.1,0.1,0.1,0.3,0.1c0.5,0,1.4,0,1.7,0c0.4,0,1.2,0,2.1,0c0.1,0,0.3,0,0.3-0.1c0-0.1-0.1-0.1-0.2-0.1
		c-0.2,0-0.5,0-0.7,0c-0.4-0.1-0.5-0.3-0.5-0.7c-0.1-0.6-0.1-1.6-0.1-2.9v-2.4c0-2,0-2.4,0-2.8c0-0.5,0.1-0.7,0.5-0.8
		c0.2,0,0.3,0,0.4,0c0.1,0,0.2,0,0.2-0.1c0-0.1-0.1-0.1-0.3-0.1c-0.5,0-1.3,0-1.6,0c-0.4,0-1.2,0-1.7,0c-0.2,0-0.3,0-0.3,0.1
		c0,0.1,0.1,0.1,0.2,0.1c0.2,0,0.3,0,0.5,0.1c0.3,0.1,0.4,0.3,0.5,0.8c0,0.4,0,0.8,0,2.8V43.8z M78.5,47.1c0.3,0.6,0.3,0.8,0.5,0.8
		c0.2,0,0.3-0.2,0.6-1c0.3-0.7,0.9-2.1,1.8-4.1c0.7-1.6,1.1-2.4,1.6-3.6c0.4-0.9,0.6-1.1,0.7-1.2c0.2-0.2,0.5-0.2,0.7-0.2
		c0.1,0,0.2,0,0.2-0.1c0-0.1-0.1-0.1-0.3-0.1c-0.4,0-1,0-1.3,0c-0.2,0-0.7,0-1.4,0c-0.3,0-0.4,0-0.4,0.1c0,0.1,0.1,0.1,0.2,0.1
		c0.2,0,0.4,0,0.5,0.1c0.1,0,0.2,0.1,0.2,0.3c0,0.1-0.1,0.3-0.1,0.5c-0.3,0.9-2.1,5.2-2.6,6.7l-2.4-6.1c-0.2-0.5-0.3-0.9-0.3-1
		c0-0.1,0-0.2,0.1-0.3c0.1-0.1,0.3-0.1,0.5-0.1c0.1,0,0.2,0,0.2-0.1c0-0.1-0.2-0.1-0.3-0.1c-0.7,0-1.3,0-1.6,0c-0.5,0-1.2,0-1.9,0
		c-0.2,0-0.3,0-0.3,0.1c0,0.1,0,0.1,0.2,0.1c0.1,0,0.3,0,0.5,0.1c0.5,0.1,0.7,0.3,1,1L78.5,47.1z M96.5,43.8c0,1.2,0,2.3-0.1,2.9
		c-0.1,0.4-0.1,0.7-0.4,0.7c-0.1,0-0.3,0-0.5,0c-0.2,0-0.2,0-0.2,0.1c0,0.1,0.1,0.1,0.3,0.1c0.3,0,0.6,0,0.9,0c0.3,0,0.6,0,0.8,0
		c0.4,0,0.8,0,1.4,0c0.6,0,1.3,0,2.3,0c0.5,0,0.6,0,0.7-0.4c0.1-0.3,0.2-1.2,0.2-1.5c0-0.1,0-0.2-0.1-0.2c-0.1,0-0.1,0-0.1,0.2
		c-0.1,0.5-0.3,0.8-0.6,1c-0.4,0.2-0.9,0.2-1.3,0.2c-1.4,0-1.6-0.2-1.6-1.1c0-0.4,0-1.6,0-2.1v-1.1c0-0.1,0-0.1,0.1-0.1
		c0.3,0,1.6,0,1.9,0c0.5,0.1,0.7,0.3,0.7,0.5c0,0.2,0,0.4,0.1,0.5c0,0.1,0,0.1,0.1,0.1c0.1,0,0.1-0.1,0.1-0.2c0-0.1,0-0.6,0.1-0.9
		c0-0.7,0.1-0.9,0.1-1c0-0.1,0-0.1-0.1-0.1c-0.1,0-0.1,0.1-0.2,0.2c-0.1,0.1-0.3,0.2-0.6,0.2c-0.3,0-1.8,0-2.1,0
		c-0.1,0-0.1-0.1-0.1-0.1v-3.4c0-0.1,0-0.1,0.1-0.1c0.3,0,1.7,0,1.9,0.1c0.7,0.1,0.8,0.2,0.9,0.5c0.1,0.2,0.1,0.4,0.1,0.5
		c0,0.1,0,0.2,0.1,0.2c0.1,0,0.1-0.1,0.1-0.1c0-0.2,0.1-0.7,0.1-0.9c0-0.6,0.1-0.8,0.1-0.9c0-0.1,0-0.1-0.1-0.1
		c-0.1,0-0.2,0-0.2,0.1c-0.1,0-0.3,0.1-0.6,0.1c-0.3,0-2.9,0-3.4,0c-0.2,0-0.5,0-0.8,0c-0.3,0-0.7,0-1.1,0c-0.2,0-0.3,0-0.3,0.1
		c0,0.1,0.1,0.1,0.2,0.1c0.2,0,0.4,0,0.5,0c0.4,0.1,0.5,0.3,0.6,0.8c0,0.4,0,0.8,0,2.8V43.8z M115.4,43.8c0,1.2,0,2.3-0.1,2.9
		c-0.1,0.4-0.1,0.7-0.4,0.7c-0.1,0-0.3,0-0.5,0c-0.2,0-0.2,0-0.2,0.1c0,0.1,0.1,0.1,0.3,0.1c0.5,0,1.4,0,1.6,0c0.2,0,1.2,0,2,0
		c0.2,0,0.3,0,0.3-0.1c0-0.1-0.1-0.1-0.2-0.1c-0.2,0-0.5,0-0.7,0c-0.4-0.1-0.5-0.4-0.5-0.7c-0.1-0.6-0.1-1.6-0.1-2.9v-0.2
		c0-0.1,0-0.1,0.1-0.1l1.2,0c0.1,0,0.2,0,0.2,0.1c0.2,0.2,0.8,1.1,1.3,1.9c0.8,1,1.3,1.7,1.8,2c0.3,0.2,0.7,0.3,1.4,0.3h1.3
		c0.2,0,0.3,0,0.3-0.1c0-0.1-0.1-0.1-0.2-0.1c-0.1,0-0.2,0-0.4,0c-0.2,0-0.8-0.1-1.5-0.9c-0.8-0.8-1.7-2-2.9-3.5
		c1.4-1.1,1.8-2,1.8-3c0-0.9-0.5-1.6-0.9-1.8c-0.7-0.5-1.6-0.6-2.5-0.6c-0.4,0-1.4,0-1.9,0c-0.3,0-1.1,0-1.8,0c-0.2,0-0.3,0-0.3,0.1
		c0,0.1,0.1,0.1,0.2,0.1c0.2,0,0.4,0,0.5,0c0.4,0.1,0.6,0.3,0.6,0.8c0,0.4,0,0.8,0,2.8V43.8z M116.9,38.5c0-0.1,0-0.2,0.1-0.2
		c0.1,0,0.4,0,0.7,0c0.8,0,2,0.5,2,2.4c0,1.1-0.4,1.7-0.8,2c-0.2,0.2-0.4,0.2-1,0.2c-0.3,0-0.7,0-1-0.1c-0.1,0-0.1-0.1-0.1-0.2V38.5
		z M136.9,47.9c0.7,0,1.5-0.1,2.1-0.5c1-0.6,1.3-1.6,1.3-2.3c0-1.3-0.6-2.2-2.2-3.4l-0.4-0.3c-1.1-0.8-1.4-1.3-1.4-1.9
		c0-0.8,0.6-1.4,1.6-1.4c0.9,0,1.3,0.4,1.5,0.7c0.3,0.3,0.3,0.8,0.3,0.9c0,0.2,0,0.2,0.1,0.2c0.1,0,0.1-0.1,0.1-0.4
		c0-1,0.1-1.4,0.1-1.6c0-0.1-0.1-0.1-0.2-0.2c-0.3-0.1-0.9-0.2-1.8-0.2c-1.9,0-3.1,1.1-3.1,2.5c0,1.1,0.5,2,2,3.2l0.6,0.5
		c1.1,0.9,1.3,1.5,1.3,2.1c0,0.7-0.6,1.5-1.8,1.5c-0.8,0-1.6-0.4-1.9-1.4c-0.1-0.2-0.1-0.5-0.1-0.7c0-0.1,0-0.2-0.1-0.2
		c-0.1,0-0.2,0.1-0.2,0.3c0,0.2-0.1,1-0.1,1.8c0,0.3,0,0.4,0.3,0.5C135.5,47.8,136.1,47.9,136.9,47.9 M153.9,43.8
		c0,1.3,0,2.4-0.1,2.9c0,0.4-0.1,0.6-0.4,0.7c-0.1,0-0.3,0-0.5,0c-0.2,0-0.2,0-0.2,0.1c0,0.1,0.1,0.1,0.3,0.1c0.5,0,1.4,0,1.7,0
		c0.4,0,1.2,0,2.1,0c0.1,0,0.3,0,0.3-0.1c0-0.1-0.1-0.1-0.2-0.1c-0.2,0-0.5,0-0.7,0c-0.4-0.1-0.5-0.3-0.5-0.7
		c-0.1-0.6-0.1-1.6-0.1-2.9v-2.4c0-2,0-2.4,0-2.8c0-0.5,0.1-0.7,0.5-0.8c0.2,0,0.3,0,0.4,0c0.1,0,0.2,0,0.2-0.1
		c0-0.1-0.1-0.1-0.3-0.1c-0.5,0-1.3,0-1.6,0c-0.4,0-1.2,0-1.7,0c-0.2,0-0.3,0-0.3,0.1c0,0.1,0.1,0.1,0.2,0.1c0.2,0,0.3,0,0.5,0.1
		c0.3,0.1,0.4,0.3,0.5,0.8c0,0.4,0,0.8,0,2.8V43.8z M171.8,43.8c0,1.2,0,2.3-0.1,2.9c0,0.4-0.1,0.7-0.4,0.7c-0.1,0-0.3,0-0.5,0
		c-0.2,0-0.2,0-0.2,0.1c0,0.1,0.1,0.1,0.3,0.1c0.5,0,1.4,0,1.7,0c0.4,0,1.2,0,2.1,0c0.1,0,0.3,0,0.3-0.1c0-0.1-0.1-0.1-0.2-0.1
		c-0.2,0-0.5,0-0.7,0c-0.4-0.1-0.5-0.4-0.5-0.7c-0.1-0.6-0.1-1.6-0.1-2.9v-5.5l1.7,0c1.2,0,1.6,0.4,1.6,0.7l0,0.1
		c0,0.2,0,0.3,0.1,0.3c0.1,0,0.1-0.1,0.1-0.2c0-0.3,0-1.3,0-1.6c0-0.2,0-0.3-0.1-0.3c-0.1,0-0.2,0-0.4,0.1c-0.2,0-0.5,0.1-0.9,0.1
		h-5.3c-0.4,0-1,0-1.3-0.1c-0.3,0-0.5-0.2-0.6-0.2c-0.1,0-0.1,0.1-0.2,0.3c0,0.1-0.3,1.3-0.3,1.5c0,0.1,0,0.2,0.1,0.2
		c0.1,0,0.1-0.1,0.1-0.2c0-0.1,0.1-0.3,0.2-0.5c0.2-0.3,0.5-0.4,1.3-0.4l2-0.1V43.8z M191.9,45.4c0,0.2,0,0.8,0,1.3
		c0,0.4-0.1,0.7-0.4,0.7c-0.1,0-0.3,0-0.5,0c-0.1,0-0.2,0-0.2,0.1c0,0.1,0.1,0.1,0.3,0.1c0.5,0,1.3,0,1.7,0c0.4,0,1.2,0,2,0
		c0.2,0,0.3,0,0.3-0.1c0-0.1-0.1-0.1-0.2-0.1c-0.2,0-0.5,0-0.7,0c-0.4-0.1-0.5-0.4-0.5-0.7c0-0.6,0-1.1,0-1.3v-1.1
		c0-0.4,0-0.9,0.2-1.3c0.2-0.6,2.1-3.7,2.6-4.3c0.3-0.4,0.4-0.5,0.7-0.7c0.2-0.1,0.5-0.2,0.6-0.2c0.1,0,0.3,0,0.3-0.1
		c0-0.1-0.1-0.1-0.2-0.1c-0.3,0-1.1,0-1.4,0c-0.4,0-0.8,0-1.3,0c-0.2,0-0.2,0-0.2,0.1c0,0.1,0.1,0.1,0.2,0.1
		c0.2,0.1,0.3,0.2,0.3,0.3c0,0.2-0.1,0.4-0.2,0.7c-0.2,0.4-1.9,3.4-2,3.7c-0.2-0.4-2.1-3.6-2.3-4c-0.1-0.2-0.2-0.3-0.2-0.5
		c0-0.1,0.1-0.2,0.2-0.2c0.2,0,0.3-0.1,0.3-0.2c0-0.1-0.1-0.1-0.2-0.1c-0.6,0-1.2,0-1.4,0c-0.4,0-1.4,0-1.7,0c-0.2,0-0.3,0-0.3,0.1
		c0,0.1,0.1,0.1,0.2,0.1c0.2,0,0.4,0.1,0.6,0.2c0.3,0.1,0.6,0.5,0.9,1c0.5,0.7,2.3,3.6,2.4,3.9c0.2,0.4,0.3,0.7,0.3,1.4V45.4z"/>
</g>
</svg>
