<?xml version="1.0" encoding="utf-8"?>
<!-- Generator: Adobe Illustrator 18.1.1, SVG Export Plug-In . SVG Version: 6.00 Build 0)  -->
<!DOCTYPE svg PUBLIC "-//W3C//DTD SVG 1.1//EN" "http://www.w3.org/Graphics/SVG/1.1/DTD/svg11.dtd">
<svg version="1.1" xmlns="http://www.w3.org/2000/svg" xmlns:xlink="http://www.w3.org/1999/xlink" x="0px" y="0px"
	 viewBox="0 0 243.4 179" enable-background="new 0 0 243.4 179" xml:space="preserve">
<g id="Layer_3">
	<g>
		<rect x="0.5" y="0.5" fill="#FFFFFF" width="242.4" height="178"/>
	</g>
</g>
<g id="Layer_1">
	<g>
		<g>
			<g>
				<path fill="#23B5D0" d="M67.5,115.2H25.9V90.9h8.3V105h8.3V93.5h8.4V105h8.3v-16h8.3V115.2z"/>
			</g>
			<g>
				<path fill="#23B5D0" d="M25.9,63.8h41.6v24.3h-8.3V74h-8.3v11.5h-8.4V74h-8.3v16h-8.3V63.8z"/>
			</g>
		</g>
		<g>
			<path fill="#9DACB2" d="M76.4,105V74.1h18v6.1H84v6.1h8.6v6.2H84v6.2h11.9v6.1H76.4z"/>
			<path fill="#9DACB2" d="M112.3,88.8c-2.1,0-3.8,0.6-5.1,1.9c-1.4,1.2-2.1,3.1-2.1,5.6v8.7h-7.1V83h6.5l0.2,3.4
				c0.7-1.4,1.6-2.3,2.9-2.9c1.3-0.6,2.8-0.9,4.7-0.9l0.5,6.1H112.3z"/>
			<path fill="#9DACB2" d="M115,105V83h7.1V105H115z"/>
			<path fill="#9DACB2" d="M143.5,90c-1.6-0.9-3.4-1.4-5.4-1.4c-1.7,0-3.1,0.5-4.2,1.5c-1.1,1-1.7,2.3-1.7,3.9
				c0,1.6,0.6,2.9,1.8,3.9c1.2,1,2.7,1.5,4.5,1.5c1.9,0,3.7-0.5,5.4-1.4l-0.6,6.3c-0.7,0.4-1.6,0.6-2.6,0.9c-1,0.2-2.2,0.3-3.5,0.3
				c-3.4,0-6.2-1.1-8.6-3.2c-2.4-2.1-3.6-4.9-3.6-8.4c0-3.5,1.2-6.3,3.5-8.5c2.4-2.1,5.2-3.2,8.5-3.2c1.5,0,2.8,0.1,3.9,0.4
				c1.1,0.3,2.1,0.6,3.1,1.2L143.5,90z"/>
			<path fill="#9DACB2" d="M185.6,105.6c-1.5,0-2.8-0.2-4-0.5c-1.2-0.3-2.2-0.8-3-1.3l-0.7-6.2c0.9,0.8,2,1.4,3.4,1.9
				c1.3,0.5,2.7,0.7,4,0.7c0.7,0,1.3-0.1,1.7-0.4c0.4-0.3,0.6-0.7,0.6-1.2c0-0.8-0.9-1.6-2.8-2.2c-1.9-0.7-3.4-1.6-4.5-2.8
				c-1.1-1.2-1.7-2.7-1.7-4.3c0-2,0.7-3.7,2.2-5c1.5-1.3,3.4-1.9,5.9-1.9c1.3,0,2.5,0.1,3.5,0.4c1,0.3,1.8,0.6,2.5,1l-0.5,5.4
				c-0.6-0.4-1.3-0.7-2.2-1c-0.9-0.3-1.8-0.5-2.8-0.5c-1.4,0-2,0.5-2,1.5c0,0.8,1.5,1.7,4.6,2.6c3,1,4.6,3.3,4.6,6.8
				c0,2-0.7,3.7-2.2,5C190.6,105,188.5,105.6,185.6,105.6z"/>
			<path fill="#9DACB2" d="M211.3,105l-0.2-2.2c-0.6,0.9-1.5,1.6-2.6,2.1c-1.1,0.5-2.4,0.7-4,0.7c-2.4,0-4.4-0.7-5.9-2.2
				c-1.5-1.4-2.3-3.3-2.3-5.7V83h7.1v13.1c0,0.9,0.3,1.6,0.9,2.2c0.6,0.6,1.4,0.9,2.5,0.9c1.1,0,1.9-0.3,2.6-0.9
				c0.7-0.6,1-1.3,1-2.3V83h7.1V105H211.3z"/>
			<path fill="#9DACB2" d="M122.1,76.9c0,2-1.6,3.6-3.6,3.6c-2,0-3.6-1.6-3.6-3.6c0-2,1.6-3.6,3.6-3.6
				C120.5,73.4,122.1,75,122.1,76.9z"/>
			<polygon fill="#9DACB2" points="167.8,74.1 167.7,86 160,86 160,74.1 152.5,74.1 152.5,105 160,105 160,92.7 162,92.7 
				167.8,92.7 167.8,105 175.2,105 175.2,74.1 			"/>
		</g>
	</g>
</g>
</svg>
