<?xml version="1.0" encoding="utf-8"?>
<!-- Generator: Adobe Illustrator 18.1.1, SVG Export Plug-In . SVG Version: 6.00 Build 0)  -->
<!DOCTYPE svg PUBLIC "-//W3C//DTD SVG 1.1//EN" "http://www.w3.org/Graphics/SVG/1.1/DTD/svg11.dtd">
<svg version="1.1" id="Layer_1" xmlns="http://www.w3.org/2000/svg" xmlns:xlink="http://www.w3.org/1999/xlink" x="0px" y="0px"
	 viewBox="0 0 145.3 53.6" enable-background="new 0 0 145.3 53.6" xml:space="preserve">
<g id="pwmA5s.tif">
	<g>
		<path fill-rule="evenodd" clip-rule="evenodd" fill="#FFFFFF" d="M80.5,0c0.9,0,1.8,0,2.7,0c6.4,0.4,10,3.8,9.5,11.2
			c-2.5,0-5,0-7.5,0c0-3-0.7-5.6-3.5-5.7c-3-0.1-4.7,2.1-4,5c0.2,0.9,0.8,1.7,1.4,2.3c2.1,2.2,5.6,3.3,8.4,5.2
			c3.5,2.4,6.1,5.3,5.7,11.2c-0.5,7.2-6.7,9.5-14.8,8.9c-6.4-0.5-9.6-4.5-9.1-11.9c2.6,0,5.2,0,7.8,0c-0.3,4.1,1.1,7,5.2,6.5
			c2-0.2,3.2-1.8,3.1-4.2c-0.1-2.6-2.3-4-4.1-5.2C75.9,20,68.9,17.6,69.8,8.5C70.3,3.4,74.1,0.3,80.5,0z"/>
		<path fill-rule="evenodd" clip-rule="evenodd" fill="#FFFFFF" d="M106.4,0c0.8,0,1.7,0,2.5,0c6.6,0.7,10.6,4,10.7,11.1
			c-2.4,0.2-5.2,0-7.7,0.1c-0.1-2.4-0.6-4.4-2.3-5.2c-2.1-1-4.8-0.2-5.7,1.5c-1.5,2.9-1.4,7.4-1.4,11.8c0,4.4,0,8.9,1.4,11.8
			c0.4,0.4,0.8,0.9,1.2,1.2c2,1,5.3,0.5,7.2-0.3c0-2.7,0-5.4,0-8.2c-1.4-0.2-3.1,0-4.6-0.1c0-1.8,0-3.7,0-5.5c4,0,7.9,0,11.9,0
			c0,6.2,0.1,12.5-0.1,18.6c-6.6,1.7-17,2.7-21.3-1.6c-2.2-2.1-3-5.6-3.3-9.3c-0.3-4-0.4-8.5-0.1-12.2c0.3-4,0.9-7.3,2.8-9.8
			C99.5,1.5,102.7,0.3,106.4,0z"/>
		<path fill-rule="evenodd" clip-rule="evenodd" fill="#FFFFFF" d="M132.7,0c0.9,0,1.7,0,2.6,0c6.5,0.4,10,4,9.5,11.2
			c-2.5,0-5,0-7.5,0c0-2.1-0.3-4.4-1.8-5.2c-1.1-0.6-2.9-0.6-4.2,0.1c-1.9,1.1-2.1,4.6-0.7,6.2c3.9,4.5,13.2,5.4,14.5,13.3
			c0.5,3.1-0.2,6.8-1.6,8.7c-2.4,3.4-7.4,4.4-13.2,4c-6-0.5-9.7-4.5-9-11.9c2.6,0,5.1,0,7.7,0c-0.1,3.5,0.5,6.1,3.4,6.5
			c3.3,0.4,5.3-1.4,5-4.6c-0.3-2.8-3.2-4.3-5.3-5.5c-4.7-2.8-10.7-5.3-10.3-13.1C122.1,3.4,126,0.4,132.7,0z"/>
		<path fill-rule="evenodd" clip-rule="evenodd" fill="#FFFFFF" d="M0.2,0.6c11.9,0,23.8,0,35.8,0c0,1,0,2,0,3.1
			c-4.6,3.2-9.3,6.3-14.2,9.5c-1.7,1.1-3.5,2.3-5.9,2.2c-3-0.1-4.8-1.6-6.6-3.1C7,10.4,4.3,8.6,0.1,9c0-2.7,0-5.5,0-8.2
			C0.1,0.7,0.1,0.6,0.2,0.6z"/>
		<path fill-rule="evenodd" clip-rule="evenodd" fill="#FFFFFF" d="M42.5,0.6c2.5,0,5.1,0,7.6,0c0,6.5,0,13.8,0,20.6
			c0,4.4-0.6,9.2,2.3,10.9c2.2,1.3,5.5,0.4,6.6-1.4c1-1.7,0.8-4.1,0.8-6.9c0-7.7,0-15.8,0-23.2c2.6,0,5.2,0,7.8,0
			c0,6.1,0,12.3,0,18.3c0,3.1,0.2,6.4-0.1,9.1c-0.3,2.8-1.1,4.8-2.6,6.5c-2.8,3.2-8.5,4.6-14,3.3c-4.9-1.1-8.1-4.1-8.5-9.8
			c-0.2-2.3,0-4.5,0-6.9c0-6.7,0-13.5,0-20.4C42.4,0.7,42.4,0.6,42.5,0.6z"/>
		<path fill-rule="evenodd" clip-rule="evenodd" fill="#FFFFFF" d="M19.1,21.3c1.6,0.8,3.6,1.1,5.4,0.8c2.2-0.4,3.9-2.1,5.7-3.3
			c2-1.4,4-2.5,5.5-3.7c0.3,0.9,0,2.4,0.1,3.6c-1.2,1-2.7,1.9-4.2,2.9c-2.1,1.4-4.3,3-7.8,2.4c-1.8-0.3-3.4-1.3-4.5-2.3
			C19.3,21.7,19,21.5,19.1,21.3z"/>
		<path fill-rule="evenodd" clip-rule="evenodd" fill="#FFFFFF" d="M14.7,18.7C13.2,18.2,11,17.6,9,18c-1.8,0.3-3.1,1.6-4.6,2.5
			c-1.5,1-2.9,2-4.3,2.8c0-1.2,0-2.5,0-3.7c2.3-1.2,4.2-3.6,7.8-3.8C10.9,15.7,13,17.2,14.7,18.7z"/>
		<path fill-rule="evenodd" clip-rule="evenodd" fill="#FFFFFF" d="M36,30.3c0,2.5,0,5.1,0,7.6C24,38,12.1,38,0.1,38
			c0-3.5,0-7.1,0-10.6c2.3-1.7,4.9-3.4,7.3-5c1.4-0.9,2.7-1.9,4.8-2c4.7-0.3,7.1,2.7,9.6,5.1c2.6,2.4,5.2,5.1,8.9,5.7
			C32.7,31.5,34.4,31.1,36,30.3z"/>
		<path fill-rule="evenodd" clip-rule="evenodd" fill="#FFFFFF" d="M46.7,42.1c0,0.5-0.2,0.6-0.2,1.1c-1-0.1-1,0.7-1.2,1.4
			c0.3,0,0.6,0,0.8,0c0,0.4-0.2,0.6-0.2,1c-0.3,0-0.5,0-0.8,0c-0.6,1.7-0.8,3.6-1.2,5.5c-0.6,0-1.2,0-1.8,0c0.4-1.8,0.8-3.5,1.1-5.4
			c-0.1-0.1-0.5,0-0.8-0.1c0.1-0.3,0.2-0.7,0.3-1c0.3,0,0.5,0,0.8,0C43.7,43,44.6,41.7,46.7,42.1z"/>
		<path fill-rule="evenodd" clip-rule="evenodd" fill="#FFFFFF" d="M15.4,42.1c-0.2,0.4-0.2,0.9-0.3,1.4c-0.6,0-1.2,0-1.8,0
			c0.2-0.4,0.2-0.9,0.3-1.4C14.2,42.1,14.8,42.1,15.4,42.1z"/>
		<path fill-rule="evenodd" clip-rule="evenodd" fill="#FFFFFF" d="M76.1,42.1c-0.2,1-0.5,2-0.7,3.1c0.4-0.6,2.2-1.1,2.9-0.3
			c0.2,2.1-0.8,4.1-1,6.2c-0.6,0-1.2,0-1.8,0c0.2-1.2,0.6-2.5,0.8-3.8c0.2-0.8,0.3-2.3-0.8-1.6C75,46,75,47.3,74.8,48.3
			c-0.2,1.1-0.5,2.1-0.6,2.8c-0.6,0-1.2,0-1.8,0c0.6-3,1.3-6,1.9-9C74.9,42.1,75.5,42.1,76.1,42.1z"/>
		<path fill-rule="evenodd" clip-rule="evenodd" fill="#FFFFFF" d="M100.8,42.1c-0.2,0.4-0.2,0.9-0.3,1.4c-0.6,0-1.2,0-1.8,0
			c0.2-0.4,0.2-0.9,0.3-1.4C99.6,42.1,100.2,42.1,100.8,42.1z"/>
		<path fill-rule="evenodd" clip-rule="evenodd" fill="#FFFFFF" d="M138.4,42.1c-0.6,3-1.3,6-1.9,9c-0.6,0-1.2,0-1.8,0
			c0.6-3,1.2-6.1,2-9C137.2,42.1,137.8,42.1,138.4,42.1z"/>
		<path fill-rule="evenodd" clip-rule="evenodd" fill="#FFFFFF" d="M144.5,42.1c-0.7,3-1.2,6.1-2,9c-0.5,0-1.1,0-1.6,0
			c0-0.3,0.1-0.4,0.1-0.7c-1.1,1-3.2,1.2-3.1-1.2c0.1-1.8,0.9-4.6,2.3-4.8c0.5-0.1,1.5-0.1,1.8,0.8c0.4-0.9,0.5-2.1,0.7-3.1
			C143.3,42.1,143.9,42.1,144.5,42.1z M140.4,46c-0.4,0.6-1,3.5-0.4,4.1c1,0.1,1.2-1,1.4-1.8c0.2-0.8,0.6-2,0.2-2.7
			C141.1,45.4,140.6,45.7,140.4,46z"/>
		<path fill-rule="evenodd" clip-rule="evenodd" fill="#FFFFFF" d="M0,50.2c0-0.3,0-0.5,0-0.8c0.1-0.1,0.1-0.3,0.1-0.4
			c0.6,0,1.2,0,1.8,0c-0.1,0.3-0.2,0.7,0,0.9c0.6,0.5,1.4-0.1,1.4-0.7c0-1.1-2.2-1.1-2.5-2.2c-1-2.9,5.5-4,4.8-0.7
			c-0.6,0-1.2,0-1.8,0c0.1-0.3,0.1-0.8-0.1-1c-0.7-0.1-1.1,0.3-1.1,0.8c0,0.9,2.2,1.1,2.5,2.1C6,51,0.8,52.3,0,50.2z"/>
		<path fill-rule="evenodd" clip-rule="evenodd" fill="#FFFFFF" d="M11.5,46.9c-0.6,0-1.2,0-1.8,0c0.1-0.3,0.1-0.8,0-1.1
			c-0.7-0.4-1.2,0-1.5,0.5c-0.4,0.8-0.8,3-0.4,3.7c1,0.3,1.4-0.5,1.5-1.3c0.6,0,1.2,0,1.8,0c-0.1,1.9-2.4,3-4.3,2.4
			c-0.5-0.2-1-0.8-1-1.5c-0.1-1.3,0.6-3.8,1.4-4.5C8.7,43.9,12.5,44.2,11.5,46.9z"/>
		<path fill-rule="evenodd" clip-rule="evenodd" fill="#FFFFFF" d="M20.5,48.1c-1.2,0-2.3,0-3.5,0c-0.2,0.5-0.4,1.7,0.1,2
			c0.8,0.1,1.1-0.4,1.2-1.1c0.6,0,1.2,0,1.8,0c-0.3,1.1-1,1.9-2,2.2c-1.6,0.4-3.1-0.1-3.3-1.4c-0.2-1.3,0.5-3.9,1.5-4.7
			c0.7-0.6,1.8-0.7,2.7-0.6c0.2,0,1,0.2,1.3,0.7C21,45.8,20.7,47.2,20.5,48.1z M17.2,47.1c0.6,0,1.2,0,1.8,0c0-0.4,0.2-1,0-1.4
			C17.9,45.1,17.3,46.2,17.2,47.1z"/>
		<path fill-rule="evenodd" clip-rule="evenodd" fill="#FFFFFF" d="M25.9,51.1c-0.6,0-1.2,0-1.8,0c0.2-1.8,1.1-3.7,0.9-5.5
			c-1.4-0.5-1.5,1.4-1.8,2.6c-0.2,1.2-0.3,2.2-0.6,2.9c-0.6,0-1.2,0-1.8,0c0.4-2.2,0.9-4.3,1.4-6.5c0.6,0,1.2,0,1.8,0
			c0,0.3,0,0.4-0.1,0.7c0.4-0.9,2.4-1.1,3-0.2C27,47.2,26.1,49,25.9,51.1z"/>
		<path fill-rule="evenodd" clip-rule="evenodd" fill="#FFFFFF" d="M33,46.9c-0.6,0-1.2,0-1.8,0c0.1-0.2,0-0.7,0.1-1
			c-0.1,0-0.2,0-0.2-0.1c-0.4-0.1-0.8-0.1-1,0.1c-0.7,0.7-1.1,3.3-0.7,4.2c1,0.3,1.4-0.6,1.6-1.3c0.6,0,1.2,0,1.8,0
			c0.1,2.4-4.2,3.5-5.3,1.4c-0.1-3.2,0.9-6.1,4.2-5.6C32.6,44.6,33.3,45.4,33,46.9z"/>
		<path fill-rule="evenodd" clip-rule="evenodd" fill="#FFFFFF" d="M38.9,48.1c-1.2,0-2.3,0-3.5,0c-0.3,0.5-0.5,1.8,0.2,2
			c0.6,0.2,1-0.5,1.2-1.1c0.6,0,1.2,0,1.8,0c-0.1,2.2-4.2,3.2-5.2,1.1c-0.1-2.9,0.7-6.1,4.2-5.6C39.2,44.7,39.3,46.3,38.9,48.1z
			 M35.6,47.1c0.6,0,1.1,0,1.7,0c0.1-0.4,0.2-0.9,0.1-1.3C36.4,45.1,35.6,46.1,35.6,47.1z"/>
		<path fill-rule="evenodd" clip-rule="evenodd" fill="#FFFFFF" d="M48.6,44.5c0.9-0.1,2.1-0.1,2.5,0.5c0.8,1.1-0.1,4-0.6,4.8
			c-0.6,1-2.9,1.9-4.2,1c-1.5-1,0.1-5.2,0.8-5.8C47.5,44.8,48,44.6,48.6,44.5z M47.6,49.9c1.8,0.8,2.1-3.2,1.8-4.2
			C47.6,45,47.5,48.9,47.6,49.9z"/>
		<path fill-rule="evenodd" clip-rule="evenodd" fill="#FFFFFF" d="M56.3,44.4c-0.1,0.6-0.2,1-0.3,1.6c-2.6-0.3-2,3.3-2.7,5.1
			c-0.6,0-1.2,0-1.8,0c0.5-2.2,0.9-4.3,1.4-6.5c0.6,0,1.1,0,1.7,0c0,0.3-0.1,0.5-0.1,0.8C54.8,45.1,55.2,44.3,56.3,44.4z"/>
		<path fill-rule="evenodd" clip-rule="evenodd" fill="#FFFFFF" d="M63.1,51.1c-0.6,0-1.1,0-1.7,0c0-0.3,0.1-0.5,0.1-0.8
			c-0.8,1-3.6,1.6-3.3-1c0.2-1.7,1.7-2.5,3.9-2.4c1-1.5-1.1-2.1-1.3-0.5c-0.6,0-1.2,0-1.8,0c0-2.1,3.6-2.6,4.9-1.3
			C64.3,47.2,63.1,48.9,63.1,51.1z M61.7,47.9c-1.3-0.1-1.9,0.8-1.7,2c0.2,0,0.2,0.1,0.3,0.2C61.5,50.3,62,48.5,61.7,47.9z"/>
		<path fill-rule="evenodd" clip-rule="evenodd" fill="#FFFFFF" d="M72.3,46.9c-0.6,0-1.2,0-1.8,0c0.1-0.2,0-0.7,0.1-1
			c-0.1,0-0.2,0-0.2-0.1c-0.4-0.1-0.8-0.1-1,0.1c-0.7,0.7-1.1,3.3-0.7,4.2c1,0.3,1.4-0.6,1.6-1.3c0.6,0,1.2,0,1.8,0
			c0,1.8-2.5,3-4.3,2.4c-0.5-0.1-0.8-0.6-1-1c-0.1-3.2,0.9-6.1,4.2-5.6C71.9,44.6,72.6,45.4,72.3,46.9z"/>
		<path fill-rule="evenodd" clip-rule="evenodd" fill="#FFFFFF" d="M83.5,51.1c-0.5,0-1,0-1.6,0c-0.2,0,0-0.5-0.1-0.8
			c-0.6,0.6-1.5,1.1-2.7,0.8c-1.3-1.1-0.3-3.8,1.6-4.1c0.5-0.1,1.1,0,1.7-0.1c0.2-0.2,0.2-0.8,0.2-1.2c-0.5-0.6-1.5-0.1-1.4,0.7
			c-0.6,0-1.2,0-1.8,0c-0.1-2.2,4-2.6,5-1C84.5,47.6,83.7,49,83.5,51.1z M80.7,50.1c1.3,0,1.4-1.1,1.6-2.2
			C80.7,47.6,80.1,49.2,80.7,50.1z"/>
		<path fill-rule="evenodd" clip-rule="evenodd" fill="#FFFFFF" d="M89.7,51.1c-0.6,0-1.2,0-1.8,0c0.2-1.8,1.1-3.7,0.9-5.5
			c-1.5-0.5-1.5,1.5-1.7,2.7c-0.2,1.2-0.5,2.1-0.7,2.8c-0.6,0-1.2,0-1.8,0c0.4-2.2,0.9-4.3,1.4-6.5c0.6,0,1.1,0,1.7,0
			c0.2,0,0,0.5,0,0.7c0.5-0.9,2.8-1.2,3.1,0c0.2,1-0.4,2.2-0.7,3.3C89.9,49.5,89.8,50.4,89.7,51.1z"/>
		<path fill-rule="evenodd" clip-rule="evenodd" fill="#FFFFFF" d="M95.2,45.3c0.2-0.1,0.2-0.4,0.2-0.7c0.6,0,1.1,0,1.7,0
			c0,0.6-0.3,1.7-0.5,2.4c-0.6,2.3-0.5,5.8-2.5,6.5c-1.4,0.5-3.9,0.2-3.5-1.8c0.6,0,1.2,0,1.8,0c0,0.3,0,0.6,0.1,0.8
			c1.4,0.6,1.4-1.2,1.7-2.2c-0.4,0.1-0.6,0.5-0.9,0.6c-1.5,0.5-2.3-0.4-2.2-2c0.1-1.3,0.7-3.4,1.4-4C93.3,44.3,95,44.1,95.2,45.3z
			 M93.7,45.8c-0.3,0.3-1.2,3.4-0.7,3.9c0.6,0.7,1.3-0.3,1.4-0.8c0.3-0.9,0.5-2.4,0.3-3.3C94.5,45.5,93.9,45.6,93.7,45.8z"/>
		<path fill-rule="evenodd" clip-rule="evenodd" fill="#FFFFFF" d="M106.3,45.1c-0.1,2.3-0.8,4-1.1,6c-0.6,0-1.2,0-1.8,0
			c0.3-1.8,1-3.5,1-5.4c-1.1-0.5-1.3,0.5-1.5,1.3c-0.3,1.4-0.5,2.8-0.8,4.1c-0.6,0-1.2,0-1.8,0c0.4-2.2,0.9-4.4,1.4-6.5
			c0.6,0,1.2,0,1.8,0c0,0.3-0.1,0.4-0.1,0.7C103.7,44.4,105.8,44.1,106.3,45.1z"/>
		<path fill-rule="evenodd" clip-rule="evenodd" fill="#FFFFFF" d="M110.8,45.2c0.2-0.1,0.1-0.5,0.3-0.7c0.5,0,1.1,0,1.6,0
			c-0.4,1.5-0.7,3.6-1.1,5.5c-0.3,1.5-0.7,2.9-2,3.3c-1.3,0.4-3.9,0.2-3.4-1.8c0.5,0,1.1,0,1.6,0c0.1,0.3,0.1,0.9,0.6,0.9
			c1,0.1,1.1-1.4,1.3-2.3c-0.9,1-3,1.1-3.1-0.7c0-1.2,0.5-3.7,1.3-4.6c0.4-0.4,1.2-0.7,2.1-0.6C110.4,44.7,110.7,44.8,110.8,45.2z
			 M109.5,45.6c-0.5,0.6-0.9,2-1,3.1c0,0.5,0,1.2,0.5,1.2c1.2,0.2,1.6-3.2,1.4-4.2C110.2,45.5,109.8,45.6,109.5,45.6z"/>
		<path fill-rule="evenodd" clip-rule="evenodd" fill="#FFFFFF" d="M124.7,50.3c-0.2-2.7,0.4-5.5,2.8-5.9c1.8-0.2,2.9,0.4,2.8,2.2
			c-0.1,1.1-0.5,2.9-1.2,3.7C128.1,51.5,125.5,51.6,124.7,50.3z M126.5,49.9c0.3,0.2,0.8,0.1,1.1,0c0.5-1.1,1.1-2.7,0.8-4.2
			C126.5,45,126.5,48.6,126.5,49.9z"/>
		<path fill-rule="evenodd" clip-rule="evenodd" fill="#FFFFFF" d="M135.3,44.4c-0.2,0.5-0.2,1.1-0.4,1.6c-2.6-0.1-1.9,3.3-2.7,5.1
			c-0.6,0-1.2,0-1.8,0c0.5-2.1,1-4.3,1.4-6.5c0.6,0,1.2,0,1.8,0c0,0.3-0.1,0.5-0.2,0.8C133.7,45.1,134.3,44.3,135.3,44.4z"/>
		<path fill-rule="evenodd" clip-rule="evenodd" fill="#FFFFFF" d="M14.8,44.6c-0.4,2.2-0.9,4.4-1.4,6.5c-0.6,0-1.2,0-1.8,0
			c0.5-2.2,0.8-4.5,1.4-6.5C13.7,44.6,14.2,44.6,14.8,44.6z"/>
		<path fill-rule="evenodd" clip-rule="evenodd" fill="#FFFFFF" d="M100.3,44.6c-0.4,2.2-0.9,4.4-1.4,6.5c-0.6,0-1.2,0-1.8,0
			c0.5-2.2,0.9-4.5,1.4-6.5C99.1,44.6,99.7,44.6,100.3,44.6z"/>
		<path fill-rule="evenodd" clip-rule="evenodd" fill="#FFFFFF" d="M115.6,44.6c0.6,0,1.2,0,1.8,0c-0.1,1.6-0.2,3.2-0.1,4.8
			c0.8-1.6,1.5-3.2,2.2-4.8c0.7,0,1.3,0,2,0c0,1.6,0,3.3,0,4.9c0.8-1.5,1.4-3.2,2-4.9c0.6,0,1.1,0,1.7,0c-0.9,2.3-2.1,4.3-3,6.5
			c-0.6,0-1.3,0-1.9,0c-0.1-1.4-0.2-2.8-0.2-4.3c-0.9,1.3-1.5,2.8-2.2,4.3c-0.7,0-1.3,0-2,0C115.7,49,115.8,46.7,115.6,44.6z"/>
		<path fill-rule="evenodd" clip-rule="evenodd" fill="#FFFFFF" d="M35.9,7.6c0.2,1.1,0,2.5,0.1,3.7c-3.1,2.3-6.9,4.7-10.3,6.9
			c-1.2,0.8-2.5,1.5-4,1.6c-3.3,0.4-5.6-1.3-7.3-2.9c1.2,0.5,2.9,1.1,4.7,0.9c1.8-0.2,3.3-1.2,4.7-2.1C27.7,13.1,32.1,10.2,35.9,7.6
			z"/>
		<path fill-rule="evenodd" clip-rule="evenodd" fill="#FFFFFF" d="M0.2,15.8c-0.2-1.1,0-2.5-0.1-3.7c3.6-1.7,8.2,0,10.1,2.3
			c-0.8-0.2-1.8-0.8-2.8-0.9C4.3,13,1.8,14.4,0.2,15.8z"/>
		<path fill-rule="evenodd" clip-rule="evenodd" fill="#FFFFFF" d="M23.6,25.8c1.4,0.5,3.4,1.2,5.4,0.8c2.9-0.5,4.9-2.8,7-3.9
			c0.2,1.1,0,2.5,0.1,3.7c-1.8,1.3-4.2,2.7-7.3,2.2C26.5,28.2,24.8,27,23.6,25.8z"/>
	</g>
</g>
</svg>
